<svg height="465pt" viewBox="0 -27 465.83201 465" width="465pt" xmlns="http://www.w3.org/2000/svg"><path d="m392.039062 265.0625c1.558594 2.035156 1.648438 4.839844.226563 6.972656l.246094.324219c2.015625 2.628906 5.785156 3.128906 8.414062 1.113281 2.632813-2.015625 3.128907-5.785156 1.113281-8.414062l-36.480468-47.636719c-2.6875-3.5-3.566406-8.070313-2.363282-12.320313 1.199219-4.246093 4.339844-7.679687 8.464844-9.253906-5.847656-2.242187-12.46875-.324218-16.214844 4.695313-3.746093 5.015625-3.699218 11.914062.113282 16.878906zm0 0" fill="#d4e1f4"/><path d="m331.046875 369.726562-125.878906-160.492187c-2.6875-3.5-3.566407-8.0625-2.371094-12.308594 1.199219-4.25 4.332031-7.679687 8.453125-9.257812-5.84375-2.230469-12.457031-.3125-16.195312 4.703125-3.738282 5.015625-3.691407 11.902344.113281 16.863281l125.878906 160.492187c15.117187 19.738282 39.136719 30.574219 63.941406 28.84375-21.304687-1.375-40.972656-11.890624-53.941406-28.84375zm0 0" fill="#d4e1f4"/><path d="m360.285156 289.382812c1.554688 2.035157 1.644532 4.839844.222656 6.972657l.246094.324219c.140625.175781.285156.347656.441406.507812.050782.050781.101563.097656.152344.148438.109375.097656.21875.203124.332032.300781.0625.050781.128906.097656.191406.148437.109375.085938.21875.164063.332031.238282.070313.046874.140625.089843.210937.132812.117188.074219.234376.136719.355469.203125.070313.035156.140625.070313.210938.105469.136719.0625.273437.117187.410156.171875.0625.019531.117187.046875.179687.066406.199219.070313.398438.128906.605469.175781.027344.007813.058594.007813.085938.015625.175781.039063.355469.070313.535156.089844.070313.007813.140625.011719.214844.019531.136719.011719.277343.019532.414062.023438.035157 0 .066407.003906.101563.003906s.0625-.007812.09375-.007812c.285156 0 .570312-.023438.851562-.066407l.03125-.007812c.277344-.046875.550782-.113281.820313-.199219.046875-.015625.097656-.03125.148437-.046875.269532-.09375.53125-.203125.785156-.335937.050782-.023438.101563-.054688.148438-.082032.265625-.140625.523438-.304687.765625-.488281 2.628906-2.015625 3.128906-5.78125 1.113281-8.414063l-42.5625-55.578124c-2.683594-3.507813-3.558594-8.070313-2.355468-12.320313 1.199218-4.25 4.332031-7.683594 8.457031-9.265625-1.015625-.386719-2.070313-.660156-3.144531-.804688-5.613282-.746093-11.121094 1.964844-13.960938 6.863282-2.835938 4.902344-2.4375 11.03125 1.003906 15.527344zm0 0" fill="#d4e1f4"/><path d="m328.527344 313.703125c.050781.070313.097656.140625.140625.207031.0625.089844.125.175782.183593.265625.054688.089844.097657.167969.140626.25.042968.082031.105468.183594.152343.277344s.078125.171875.113281.261719c.039063.085937.085938.183594.121094.28125s.0625.183594.089844.273437c.03125.09375.066406.1875.089844.285157.023437.09375.042968.1875.0625.28125.019531.09375.042968.191406.058594.285156.015624.097656.023437.195312.035156.289062.011718.097656.027344.191406.03125.285156.007812.097657.007812.195313.007812.292969.003906.097657.007813.191407 0 .285157-.003906.09375-.011718.191406-.019531.289062-.007813.09375-.011719.191406-.023437.285156-.011719.09375-.03125.1875-.046876.28125-.015624.089844-.03125.191406-.050781.285156-.023437.097657-.050781.183594-.074219.273438-.023437.089844-.050781.191406-.082031.285156s-.0625.175782-.097656.261719-.070313.1875-.109375.277344c-.039062.089843-.082031.171875-.125.257812-.042969.085938-.085938.175781-.132812.261719-.046876.089844-.101563.167969-.152344.25l-.101563.152344.300781.382812c.128907.164063.265626.324219.414063.472656.011719.015626.03125.027344.046875.046876.140625.140624.289062.273437.4375.398437.054688.042969.101562.078125.160156.121094.121094.089843.242188.179687.371094.265625.0625.039062.125.078125.1875.113281.125.078125.25.148437.378906.210937.0625.035157.128906.066407.191406.09375.140626.066407.277344.121094.417969.175782.058594.019531.117188.042968.179688.066406.164062.054688.332031.097656.5.144531.035156.007813.066406.019531.101562.027344.214844.046875.429688.085937.644531.109375h.039063c.199219.019531.394531.03125.589844.03125h.050781c.023438 0 .046875-.003906.074219-.003906.277343-.003906.554687-.027344.832031-.066406l.0625-.007813c.285156-.050781.5625-.117187.835938-.207031.054687-.015625.101562-.03125.15625-.050782.273437-.09375.539062-.207031.796874-.339843.039063-.019531.070313-.039063.109376-.058594.246093-.136719.484374-.289063.710937-.457031.019531-.015625.046875-.027344.066406-.042969.023438-.015625.023438-.019531.035157-.03125.011718-.007813.023437-.015625.035156-.023437.066406-.054688.125-.113282.191406-.167969.066406-.058594.164062-.136719.238281-.207031.074219-.074219.136719-.140626.199219-.210938.066406-.074219.144531-.152344.210938-.226562.066406-.078126.121093-.152344.179687-.230469.0625-.074219.125-.15625.183594-.238281.058593-.082032.105469-.167969.15625-.25.054687-.082032.105469-.164063.15625-.25.046875-.082032.089843-.175782.132812-.261719.042969-.089844.085938-.171875.125-.257813.039063-.085937.070313-.183594.105469-.277344s.070312-.171874.101562-.261718.054688-.191406.082032-.285156c.023437-.097657.050781-.179688.070312-.273438.019532-.089844.035156-.191406.054688-.289062.015625-.09375.03125-.183594.046875-.277344.011719-.09375.015625-.191406.023437-.285156.003906-.097657.015625-.191407.019532-.289063 0-.09375 0-.191406 0-.285156 0-.097657 0-.195313-.007813-.292969-.007813-.09375-.019531-.191406-.03125-.285156s-.019531-.191406-.035156-.289063c-.015625-.09375-.039063-.1875-.058594-.285156-.023437-.09375-.039063-.1875-.0625-.28125-.027344-.09375-.058594-.191406-.089844-.285156s-.054687-.183594-.089843-.273438c-.035157-.089843-.078126-.1875-.121094-.285156-.039063-.09375-.074219-.171875-.113282-.257813-.042968-.085937-.101562-.1875-.152343-.277343-.054688-.09375-.09375-.167969-.144531-.25-.050782-.082031-.117188-.175781-.179688-.265625-.046875-.066406-.09375-.136719-.144531-.207032l-42.558594-55.574218c-2.691406-3.503906-3.566406-8.070313-2.367187-12.320313 1.203124-4.25 4.339843-7.679687 8.464843-9.253906-5.84375-2.242187-12.46875-.324219-16.210937 4.695313-3.746094 5.015624-3.699219 11.910156.113281 16.878906zm0 0" fill="#d4e1f4"/><g fill="#0635c9"><path d="m413.953125 93.503906c-7.652344.011719-14.46875 4.847656-17.015625 12.066406h-23.160156c-9.183594.042969-17.113282 6.433594-19.101563 15.398438-.773437 3.460938-3.832031 5.929688-7.378906 5.945312h-17.6875v-84.636718c-.027344-23.109375-18.753906-41.835938-41.863281-41.863282h-143.453125c-23.109375.03125-41.835938 18.757813-41.863281 41.863282v84.640625h-17.683594c-3.546875-.015625-6.609375-2.484375-7.378906-5.949219-1.992188-8.964844-9.921876-15.355469-19.105469-15.398438h-23.160157c-2.921874-8.300781-11.40625-13.289062-20.082031-11.804687-8.675781 1.480469-15.019531 9.003906-15.019531 17.804687 0 8.800782 6.34375 16.324219 15.019531 17.804688 8.675781 1.484375 17.160157-3.503906 20.082031-11.804688h23.160157c3.546875.015626 6.609375 2.484376 7.378906 5.945313 1.992187 8.964844 9.921875 15.359375 19.105469 15.402344h17.683594v36.09375h-1.226563c-4.886719.007812-9.296875-2.933594-11.167969-7.445313-3.726562-8.992187-12.507812-14.847656-22.242187-14.828125h-3.921875c-2.921875-8.304687-11.40625-13.289062-20.082032-11.808593-8.675781 1.484374-15.019531 9.003906-15.019531 17.808593 0 8.800781 6.34375 16.320313 15.019531 17.804688 8.675782 1.484375 17.160157-3.503907 20.082032-11.804688h3.921875c4.886719-.011719 9.292969 2.929688 11.164062 7.441407 3.730469 8.992187 12.511719 14.847656 22.246094 14.832031h1.226563v13.304687l-21.308594-.097656c-9.273438-.003906-17.796875 5.078125-22.199219 13.242188-2.308594 4.28125-6.785156 6.949218-11.648437 6.941406h-8.140626c-3.042968-8.253906-11.589843-13.117188-20.238281-11.511719-8.652343 1.609375-14.886719 9.214844-14.761719 18.011719s6.574219 16.222656 15.265626 17.582031c8.691406 1.359375 17.097656-3.742187 19.902343-12.082031h7.96875c9.269531.007812 17.796875-5.078125 22.199219-13.238282 2.300781-4.273437 6.761719-6.941406 11.617188-6.945312l21.335937.101562v36.917969h-1.480469c-12.394531.050781-23.292968 8.207031-26.839844 20.082031-2.027343 6.785157-8.25 11.441407-15.332031 11.472657h-8.699219c-2.921874-8.304688-11.40625-13.289063-20.082031-11.808594-8.675781 1.484375-15.019531 9.003906-15.019531 17.808594 0 8.800781 6.34375 16.320312 15.019531 17.804687s17.160157-3.503906 20.082031-11.804687h8.699219c12.398438-.054688 23.296875-8.210938 26.84375-20.089844 2.023438-6.78125 8.25-11.4375 15.328125-11.46875h1.488282v94.84375c.027343 23.113281 18.753906 41.839844 41.863281 41.867187h143.453125c12.527344.015626 24.402344-5.59375 32.34375-15.285156 1.386718-1.652344 1.777344-3.921875 1.027344-5.945312-.75-2.023438-2.53125-3.484375-4.660157-3.832032-2.128906-.347656-4.277343.476563-5.632812 2.152344-5.667969 6.914063-14.140625 10.921875-23.078125 10.910156h-143.453125c-16.484375-.023437-29.839844-13.378906-29.863281-29.863281v-22.6875h166.972656v-12h-166.972656v-255.183593h145.523437c3.3125 0 6-2.6875 6-6s-2.6875-6-6-6h-145.523437v-11.933594c.023437-16.484375 13.378906-29.839844 29.863281-29.863282h143.453125c16.484375.023438 29.84375 13.378907 29.863281 29.863282v11.933594h-11.933594c-3.3125 0-6 2.6875-6 6s2.6875 6 6 6h11.933594v139.777343c0 3.3125 2.6875 6 6 6s6-2.6875 6-6v-18.976562h1.226563c9.734374.015625 18.515624-5.839844 22.246093-14.832031 1.871094-4.511719 6.277344-7.453126 11.164063-7.441407h3.921875c2.921875 8.300781 11.40625 13.289063 20.082031 11.804688 8.675781-1.480469 15.019531-9.003907 15.019531-17.804688 0-8.804687-6.34375-16.324219-15.019531-17.808593-8.675781-1.484376-17.160156 3.503906-20.082031 11.808593h-3.921875c-9.734375-.019531-18.515625 5.835938-22.242188 14.828125-1.871094 4.511719-6.28125 7.453125-11.167968 7.445313h-1.226563v-36.09375h17.683594c9.183593-.042969 17.113281-6.4375 19.105469-15.402344.769531-3.460937 3.832031-5.929687 7.378906-5.945313h23.160156c3.054688 8.660157 12.128906 13.644532 21.078125 11.585938 8.949219-2.0625 14.925781-10.515625 13.886719-19.640625-1.039063-9.125-8.761719-16.015625-17.949219-16.011719zm-395.871094 24.132813c-3.347656 0-6.0625-2.714844-6.0625-6.066407 0-3.347656 2.714844-6.066406 6.066407-6.0625 3.347656 0 6.0625 2.714844 6.0625 6.0625-.003907 3.351563-2.71875 6.0625-6.066407 6.066407zm28.769531 47.167969c-3.347656 0-6.0625-2.714844-6.0625-6.066407 0-3.347656 2.714844-6.066406 6.0625-6.0625 3.351563 0 6.066407 2.714844 6.066407 6.0625-.003907 3.347657-2.71875 6.0625-6.066407 6.066407zm-24.648437 67.898437c-3.351563 0-6.066406-2.714844-6.066406-6.0625 0-3.351563 2.714843-6.066406 6.0625-6.066406 3.351562 0 6.066406 2.714843 6.066406 6.066406-.007813 3.34375-2.71875 6.054687-6.0625 6.058594zm10.84375 60.15625c-3.347656 0-6.0625-2.714844-6.0625-6.0625s2.714844-6.0625 6.066406-6.0625c3.347657 0 6.0625 2.714844 6.0625 6.0625-.007812 3.34375-2.71875 6.054687-6.066406 6.058594zm352.136719-140.1875c3.351562 0 6.066406 2.714844 6.066406 6.066406 0 3.347657-2.714844 6.0625-6.066406 6.0625-3.347656 0-6.0625-2.714843-6.0625-6.0625.003906-3.347656 2.714844-6.0625 6.0625-6.066406zm28.769531-35.035156c-3.347656 0-6.0625-2.714844-6.0625-6.066407 0-3.347656 2.714844-6.066406 6.066406-6.0625 3.347657 0 6.0625 2.714844 6.0625 6.0625-.003906 3.351563-2.71875 6.0625-6.066406 6.066407zm0 0"/><path d="m293.574219 60.210938c0-3.3125-2.683594-6-6-6h-9.964844c-3.3125 0-6 2.6875-6 6s2.6875 6 6 6h9.964844c3.316406 0 6-2.6875 6-6zm0 0"/><path d="m196.570312 359.667969c0 10.742187 8.707032 19.449219 19.449219 19.449219 10.742188.003906 19.449219-8.707032 19.449219-19.445313 0-10.742187-8.707031-19.449219-19.449219-19.449219-10.734375.011719-19.4375 8.710938-19.449219 19.445313zm26.898438 0c.003906 4.117187-3.332031 7.449219-7.445312 7.449219-4.117188.003906-7.453126-3.332032-7.449219-7.449219 0-4.113281 3.332031-7.449219 7.449219-7.445313 4.109374.003906 7.441406 3.335938 7.445312 7.445313zm0 0"/><path d="m281.691406 199.75c-.003906-33.347656-21.75-62.796875-53.617187-72.613281-31.871094-9.820313-66.417969 2.285156-85.1875 29.851562-18.769531 27.5625-17.375 64.144531 3.4375 90.199219 20.816406 26.054688 56.183593 35.496094 87.214843 23.28125l-4.40625-11.164062c-29.484374 11.640624-63.046874-.011719-78.976562-27.414063-15.925781-27.40625-9.4375-62.335937 15.269531-82.191406 24.710938-19.855469 60.21875-18.675781 83.554688 2.78125 23.332031 21.453125 27.484375 56.738281 9.769531 83.023437l9.941406 6.722656c8.492188-12.535156 13.019532-27.335937 13-42.476562zm0 0"/><path d="m254.992188 226.335938c12.601562-23.421876 6.964843-52.484376-13.488282-69.488282-20.449218-17.007812-50.050781-17.253906-70.78125-.589844-20.730468 16.664063-26.851562 45.625-14.640625 69.253907 12.214844 23.628906 39.382813 35.382812 64.96875 28.105469l-3.285156-11.542969c-20.128906 5.742187-41.511719-3.496094-51.128906-22.082031-9.621094-18.589844-4.8125-41.378907 11.5-54.496094 16.308593-13.117188 39.601562-12.925782 55.691406.457031 16.09375 13.382813 20.527344 36.25 10.601563 54.679687zm0 0"/></g><path d="m387.320312 193.105469c-6.0625-7.925781-16.121093-11.683594-25.890624-9.664063-9.769532 2.015625-17.523438 9.445313-19.949219 19.125-7.523438-4.183594-16.625-4.371094-24.316407-.507812-7.6875 3.867187-12.96875 11.285156-14.101562 19.816406-.105469.800781-.171875 1.597656-.199219 2.398438-13.375-3.070313-26.832031 4.804687-30.699219 17.972656l-45.234374-57.335938c-5.632813-7.433594-14.820313-11.28125-24.070313-10.078125-9.25 1.199219-17.148437 7.265625-20.695313 15.890625-3.550781 8.628906-2.203124 18.496094 3.523438 25.855469l83.703125 106.734375c-12.042969 3.40625-21.800781 12.246094-26.375 23.898438-1.167969 2.984374.21875 6.363281 3.148437 7.667968l76.308594 33.980469c33.066406 29.601563 83.230469 29.175781 115.792969-.976563 32.5625-30.15625 36.832031-80.136718 9.851563-115.378906zm-109.605468 140.820312 26.359375 33.605469-47.257813-21.042969c4.683594-7.160156 12.378906-11.785156 20.898438-12.5625zm147.117187 49.613281c-32.484375 24.808594-78.921875 18.625-103.785156-13.8125l-125.878906-160.492187c-4.683594-6.152344-3.488281-14.9375 2.664062-19.617187 6.152344-4.683594 14.9375-3.492188 19.621094 2.660156l101.597656 128.789062c.128907.164063.269531.320313.414063.46875.015625.019532.03125.03125.046875.046875.140625.140625.289062.273438.441406.398438.050781.042969.097656.082031.15625.121093.121094.09375.246094.183594.371094.265626.0625.039062.125.078124.1875.117187.125.074219.25.144531.378906.210937.066406.03125.128906.0625.195313.09375.136718.0625.273437.121094.414062.171876.058594.023437.121094.046874.179688.066406.164062.058594.335937.101562.5.144531.035156.011719.070312.019531.105468.027344.210938.050781.425782.085937.640625.109375h.039063c.203125.023437.394531.03125.589844.035156h.050781c.023437 0 .046875-.007812.074219-.007812.277343 0 .554687-.023438.832031-.066407l.0625-.007812c.285156-.046875.566406-.117188.839843-.203125.050782-.019532.097657-.035156.152344-.050782.273438-.09375.542969-.207031.800782-.34375.035156-.015624.070312-.039062.105468-.058593.246094-.136719.484375-.289063.710938-.457031.023437-.015626.046875-.027344.070312-.042969.019532-.015625.019532-.019531.03125-.027344.011719-.011719.023438-.015625.035156-.023437.066407-.054688.128907-.117188.195313-.171876.066406-.054687.160156-.136718.234375-.207031.078125-.070312.136719-.140625.203125-.210937.0625-.070313.140625-.148438.210937-.226563.066407-.078125.117188-.152343.179688-.226562.058594-.078125.125-.160157.179688-.242188.058593-.082031.105468-.164062.160156-.246093.050781-.085938.105468-.164063.152344-.25.046874-.085938.089843-.175782.132812-.265626.042969-.085937.085938-.167968.125-.253906.039062-.089844.074219-.1875.109375-.28125.035156-.089844.066406-.171875.097656-.261718.03125-.089844.054688-.1875.082031-.285157.027344-.097656.050782-.179687.074219-.269531.019531-.089844.035157-.191406.050781-.289062.015626-.097657.035157-.183594.046876-.277344.011718-.097656.015624-.191406.023437-.289063.007813-.097656.019531-.191406.019531-.285156.003906-.097656 0-.191406 0-.289063 0-.09375 0-.191406-.007812-.289062-.003906-.097656-.019532-.191406-.03125-.285156-.007813-.097656-.019532-.191406-.035156-.289063-.015626-.097656-.039063-.191406-.058594-.285156-.019532-.097656-.039063-.191406-.0625-.285156-.023438-.09375-.058594-.1875-.089844-.28125-.03125-.097657-.054688-.1875-.089844-.277344s-.078125-.1875-.121094-.28125c-.039062-.09375-.070312-.175781-.113281-.261719-.042969-.085937-.101562-.183594-.152343-.277344-.050782-.089843-.089844-.167968-.140626-.25-.050781-.078124-.121093-.175781-.183593-.261718-.046875-.070313-.089844-.140625-.140625-.207032l-42.5625-55.578124c-4.628906-6.140626-3.4375-14.867188 2.667968-19.542969 6.105469-4.675781 14.839844-3.550781 19.5625 2.519531l42.558594 55.578125c.140625.175781.285156.34375.441406.507813.050782.050781.101563.097656.152344.148437.109375.097656.21875.203125.332032.300781.0625.050782.128906.097656.191406.148438.109375.085937.21875.164062.332031.238281.070313.046875.140625.089844.210937.132813.117188.074218.234376.136718.355469.203124.070313.035157.140625.070313.210938.105469.136719.0625.273437.117188.410156.171875.0625.019532.117187.046875.179687.066406.199219.070313.398438.128907.605469.175782.027344.007812.058594.007812.085938.015625.175781.039062.355469.066406.535156.089843.070313.007813.140625.011719.214844.019532.136719.011718.277343.019531.414062.023437.035157 0 .066407.003907.101563.003907s.0625-.007813.09375-.007813c.285156 0 .570312-.023437.851562-.066406l.03125-.007813c.277344-.046875.550782-.113281.820313-.199218.046875-.015626.097656-.03125.148437-.046876.269532-.09375.53125-.207031.785156-.335937.050782-.023437.101563-.054687.148438-.082031.265625-.140625.523438-.304688.765625-.488282 2.628906-2.015624 3.128906-5.78125 1.113281-8.414062l-42.5625-55.570312c-3.0625-3.96875-3.769531-9.273438-1.851562-13.90625 1.917968-4.632813 6.167968-7.886719 11.140625-8.53125 4.972656-.644532 9.90625 1.421874 12.941406 5.414062l42.558594 55.574219c2.015625 2.628906 5.785156 3.128906 8.414062 1.113281 2.632813-2.015625 3.128907-5.78125 1.113281-8.414062l-36.480468-47.636719c-3.0625-3.96875-3.769532-9.273438-1.851563-13.90625 1.917969-4.632813 6.167969-7.886719 11.140625-8.53125 4.972656-.640625 9.910156 1.421875 12.941406 5.414062l60.800782 79.394531c24.804687 32.460938 18.648437 78.875-13.757813 103.75zm0 0" fill="#1ae5be"/></svg>