<svg xmlns="http://www.w3.org/2000/svg" xmlns:xlink="http://www.w3.org/1999/xlink" id="Capa_1" x="0" y="0" version="1.1" viewBox="0 0 496 496" xml:space="preserve" style="enable-background:new 0 0 496 496"><g><rect style="fill:#333" width="40" height="16" x="31.984" y="312"/><path style="fill:#333" d="M496,152V88h-29.544c-1.128-3.2-2.416-6.328-3.848-9.352l20.872-20.872L438.224,12.52l-20.88,20.88 c-3.024-1.44-6.144-2.728-9.344-3.848V0h-64v29.544c-3.2,1.128-6.32,2.416-9.344,3.848l-20.88-20.88l-45.248,45.256L289.4,78.64 c-1.44,3.024-2.728,6.152-3.848,9.352h-29.544v64h29.544c1.128,3.2,2.416,6.328,3.848,9.344l-20.872,20.88l45.248,45.256 l20.88-20.88c3.024,1.44,6.144,2.728,9.344,3.848V240h28.688l-32.432,32.432C338.84,272.28,337.456,272,336,272 c-10.184,0-19.384,3.944-26.456,10.232l-61.92-61.92C245.736,200.008,228.792,184,208,184c-22.056,0-40,17.944-40,40 c0,8.136,2.472,15.696,6.664,22.024l-68.472,68.472L92.944,288H0v208h240V320H123.312l62.664-62.664 C192.304,261.528,199.864,264,208,264c16.384,0,30.456-9.92,36.64-24.048l55.208,55.208C297.44,300.296,296,305.968,296,312 c0,22.056,17.944,40,40,40s40-17.944,40-40c0-14.28-7.584-26.744-18.864-33.816L395.312,240H408v-29.544 c3.2-1.128,6.32-2.416,9.344-3.848l20.88,20.88l45.248-45.256l-20.872-20.88c1.44-3.024,2.728-6.144,3.848-9.344H496V152z M224,352 h-16v16h16v112H16V368h176v-16H16v-48h67.056l16,32H224V352z M208,248c-13.232,0-24-10.768-24-24s10.768-24,24-24s24,10.768,24,24 S221.232,248,208,248z M336,336c-13.232,0-24-10.768-24-24s10.768-24,24-24s24,10.768,24,24S349.232,336,336,336z M460.848,182.224 l-22.624,22.632l-17.976-17.976l-5.28,2.952c-5.32,2.976-11.088,5.352-17.152,7.072l-5.824,1.648V224h-32v-25.448l-5.824-1.648 c-6.064-1.72-11.832-4.096-17.152-7.072l-5.28-2.952l-17.976,17.976l-22.624-22.632l17.976-17.976l-2.952-5.28 c-2.976-5.32-5.36-11.088-7.08-17.152L297.448,136H272v-32h25.448l1.648-5.816c1.728-6.072,4.104-11.84,7.072-17.152l2.96-5.288 l-17.976-17.976l22.624-22.632l17.976,17.976l5.28-2.952c5.32-2.976,11.088-5.352,17.152-7.072l5.824-1.648V16h32v25.448 l5.824,1.648c6.064,1.72,11.832,4.096,17.152,7.072l5.28,2.952l17.976-17.976l22.624,22.632l-17.976,17.976l2.96,5.288 c2.968,5.304,5.344,11.072,7.072,17.152l1.632,5.808H480v32h-25.448l-1.648,5.816c-1.72,6.064-4.104,11.832-7.08,17.152 l-2.952,5.28L460.848,182.224z"/><path style="fill:#333" d="M376,64c-30.872,0-56,25.12-56,56s25.128,56,56,56s56-25.12,56-56S406.872,64,376,64z M376,160 c-22.056,0-40-17.944-40-40s17.944-40,40-40s40,17.944,40,40S398.056,160,376,160z"/><path style="fill:#333" d="M396.088,287.88l7.832,13.952l23.424-13.144c-17.56,77.952-83.552,136.04-164,142.68l1.312,15.944 c87.592-7.224,159.392-70.552,178.352-155.48l14.072,24.192l13.832-8.048l-27.232-46.808L396.088,287.88z"/><path style="fill:#333" d="M93.656,229.656l-11.312-11.312l-17.928,17.928C70.488,140.264,150.48,64,248,64V48 C141.408,48,54.048,131.816,48.312,237l-18.656-18.656l-11.312,11.312L56,267.312L93.656,229.656z"/><path style="fill:#333" d="M113.224,197.176l14.968,5.648c15.848-42.008,53.096-72.984,97.2-80.832l-2.8-15.752 C172.968,115.072,131.056,149.92,113.224,197.176z"/></g><g><rect style="fill:#ffa64d" width="208" height="16" x="15.984" y="368"/><rect style="fill:#ffa64d" width="208" height="16" x="15.984" y="400"/><circle style="fill:#ffa64d" cx="375.984" cy="120" r="24"/></g></svg>