<?xml version="1.0" encoding="iso-8859-1"?>
<!-- Generator: Adobe Illustrator 21.0.0, SVG Export Plug-In . SVG Version: 6.00 Build 0)  -->
<svg version="1.1" id="Capa_1" xmlns="http://www.w3.org/2000/svg" xmlns:xlink="http://www.w3.org/1999/xlink" x="0px" y="0px"
	 viewBox="0 0 512 512" style="enable-background:new 0 0 512 512;" xml:space="preserve">
<circle style="fill:#4A7AFF;" cx="256" cy="256" r="256"/>
<g>
	<path style="fill:#2864F0;" d="M160.348,341.372L121.052,327l-23.891,29.313l39.173,39.113l-7.838,2.654l113.536,113.536
		C246.657,511.865,251.313,512,256,512c22.928,0,45.145-3.031,66.291-8.686L160.348,341.372z"/>
	<path style="fill:#2864F0;" d="M496.621,343.58L286.423,133.381L132.129,288.543l113.203,113.203l-3.918,2.861l94.617,94.617
		C410.503,474.732,469.889,417.007,496.621,343.58z"/>
	<path style="fill:#2864F0;" d="M337.606,116.473l54.168,54.167l-1.21,39.666l112.587,112.587C508.91,301.567,512,279.146,512,256
		c0-4.502-0.119-8.976-0.349-13.42L387.698,118.626C387.698,118.626,336.353,115.219,337.606,116.473z"/>
</g>
<path style="fill:#B4F5F0;" d="M414.839,155.687l-12.864,12.616l0.081-8.329c0.169-17.327-6.419-33.682-18.552-46.054
	c-12.133-12.371-28.356-19.277-45.683-19.446l-0.215,21.999c11.451,0.111,22.173,4.675,30.19,12.851s12.372,18.984,12.261,30.435
	l-0.081,8.331l-12.617-12.866l-15.707,15.404l38.912,39.678l39.679-38.913L414.839,155.687z"/>
<path style="fill:#CBF7F7;" d="M144.203,382.676c-8.018-8.176-12.372-18.984-12.261-30.435l0.081-8.331l12.617,12.866l15.707-15.404
	l-38.912-39.678l-39.679,38.913l15.404,15.707l12.864-12.616l-0.081,8.329c-0.169,17.327,6.419,33.682,18.552,46.054
	c12.133,12.371,28.356,19.277,45.683,19.446l0.215-21.999C162.942,395.416,152.221,390.852,144.203,382.676z"/>
<polygon style="fill:#FFFFFF;" points="241.099,88.058 132.129,88.058 132.129,288.543 286.423,288.543 286.423,133.381 "/>
<polygon style="fill:#F2F6FC;" points="286.423,133.381 241.099,88.058 205.571,88.058 205.571,288.543 286.423,288.543 "/>
<polygon style="fill:#DCE1EB;" points="241.099,133.381 286.423,133.381 241.099,88.058 "/>
<polygon style="fill:#FFD400;" points="350.383,204.121 241.413,204.121 241.413,404.607 395.707,404.607 395.707,249.445 "/>
<polygon style="fill:#FFB000;" points="395.707,249.445 350.383,204.121 321.643,204.121 321.643,404.607 395.707,404.607 "/>
<polygon style="fill:#FFA300;" points="350.383,249.445 395.707,249.445 350.383,204.121 "/>
<g>
</g>
<g>
</g>
<g>
</g>
<g>
</g>
<g>
</g>
<g>
</g>
<g>
</g>
<g>
</g>
<g>
</g>
<g>
</g>
<g>
</g>
<g>
</g>
<g>
</g>
<g>
</g>
<g>
</g>
</svg>
