<svg id="Capa_1" enable-background="new 0 0 512 512" height="512" viewBox="0 0 512 512" width="512" xmlns="http://www.w3.org/2000/svg" xmlns:xlink="http://www.w3.org/1999/xlink"><linearGradient id="SVGID_1_" gradientUnits="userSpaceOnUse" x1="599.886" x2="63.886" y1="18.264" y2="438.264"><stop offset=".007" stop-color="#9494ff"/><stop offset=".992" stop-color="#ffe8dc" stop-opacity="0"/></linearGradient><g><path d="m419.843 204.806c1.055-7.758 1.571-15.687 1.509-23.748-.692-90.025-74.256-163.486-164.281-164.057-91.815-.581-166.428 73.673-166.428 165.354 0 7.615.516 15.109 1.513 22.45 4.043 29.747-9.887 59.143-35.212 75.263-35.611 22.668-56.944 51.54-56.944 82.98 0 72.876 114.615 131.954 256 131.954s256-59.078 256-131.954c0-31.44-21.334-60.312-56.946-82.98-25.325-16.12-39.254-45.516-35.211-75.262z" fill="url(#SVGID_1_)"/><g><g><g fill="#00c" opacity=".1"><path d="m357.654 328.632c15.915-4.695 25.011-21.402 20.316-37.317-4.012-13.601-16.799-22.214-30.366-21.502-2.946-4.757-6.771-8.907-11.242-12.242h67.452c2.011 5.221 7.063 8.932 12.992 8.932 7.695 0 13.932-6.238 13.932-13.932s-6.238-13.932-13.932-13.932c-5.93 0-10.981 3.711-12.992 8.932h-77.854c-5.387-34.551-35.252-60.996-71.314-60.996s-65.93 26.445-71.317 60.996h-85.623c-2.011-5.221-7.062-8.932-12.992-8.932-7.695 0-13.932 6.238-13.932 13.932 0 7.695 6.238 13.932 13.932 13.932 5.93 0 10.981-3.711 12.992-8.932h71.526c-3.139 1.718-6.092 3.902-8.751 6.561-5.016 5.016-8.35 11.072-10.023 17.472-11.668 2.687-20.371 13.131-20.371 25.615 0 14.521 11.772 26.293 26.293 26.293 6.119 0 11.744-2.096 16.211-5.601 6.058 5.885 14.319 9.515 23.432 9.515 9.406 0 17.906-3.865 24.01-10.088 9.934 6.385 21.754 10.088 34.44 10.088 11.021 0 21.39-2.795 30.435-7.716 7.115 4.866 15.718 7.716 24.988 7.716 10.542 0 20.218-3.687 27.826-9.832 6.114 2.521 13.095 3.055 19.932 1.038z"/><path d="m168.165 129.004c.854-2.11-.699-4.413-2.975-4.413h-12.331v-24.468c0-1.772-1.437-3.209-3.209-3.209h-48.543l-3.799-10.915c-.449-1.29-1.665-2.154-3.031-2.154h-38.499c-1.772 0-3.209 1.437-3.209 3.209v74.779c0 2.761 2.239 5 5 5h91.919c2.037 0 3.871-1.236 4.635-3.125z"/><path d="m453.511 412.913h-12.331v-24.468c0-1.772-1.437-3.209-3.209-3.209h-48.544l-3.799-10.915c-.449-1.29-1.665-2.154-3.031-2.154h-38.498c-1.772 0-3.209 1.437-3.209 3.209v74.779c0 2.761 2.239 5 5 5h91.919c2.037 0 3.871-1.236 4.635-3.125l14.042-34.704c.853-2.11-.699-4.413-2.975-4.413z"/><path d="m165.19 412.913h-12.331v-24.468c0-1.772-1.437-3.209-3.209-3.209h-48.544l-3.799-10.915c-.449-1.29-1.665-2.154-3.031-2.154h-38.498c-1.772 0-3.209 1.437-3.209 3.209v74.779c0 2.761 2.239 5 5 5h91.919c2.037 0 3.871-1.236 4.635-3.125l14.042-34.705c.854-2.109-.699-4.412-2.975-4.412z"/><path d="m456.486 129.004c.854-2.11-.699-4.413-2.975-4.413h-12.331v-24.468c0-1.772-1.437-3.209-3.209-3.209h-48.543l-3.799-10.915c-.449-1.29-1.665-2.154-3.031-2.154h-38.498c-1.772 0-3.209 1.437-3.209 3.209v74.779c0 2.761 2.239 5 5 5h91.919c2.037 0 3.871-1.236 4.635-3.125z"/></g><g><g><path d="m377.97 264.315c-4.012-13.601-16.799-22.213-30.366-21.502-4.928-7.957-12.303-14.237-21.074-17.793-3.407-36.707-34.287-65.445-71.884-65.445-37.994 0-69.134 29.348-71.988 66.611-8.111 1.068-15.946 4.713-22.178 10.945-5.016 5.016-8.35 11.072-10.023 17.472-11.668 2.687-20.371 13.131-20.371 25.615 0 14.521 11.772 26.293 26.293 26.293 6.119 0 11.744-2.096 16.211-5.601 6.058 5.885 14.319 9.515 23.432 9.515 9.406 0 17.906-3.865 24.01-10.088 9.934 6.384 21.754 10.088 34.44 10.088 11.021 0 21.39-2.795 30.435-7.716 7.115 4.866 15.717 7.716 24.988 7.716 10.542 0 20.218-3.687 27.826-9.832 6.114 2.521 13.095 3.055 19.932 1.038 15.916-4.693 25.012-21.401 20.317-37.316z" fill="#d9d9ff"/><path d="m345.896 302.67c-2.83-.3-5.58-1.01-8.17-2.08-7.61 6.15-17.29 9.84-27.83 9.84-9.27 0-17.87-2.85-24.99-7.72-9.04 4.92-19.41 7.72-30.43 7.72-12.69 0-24.51-3.71-34.44-10.09-6.11 6.22-14.61 10.09-24.01 10.09-9.12 0-17.38-3.63-23.44-9.52-2.84 2.24-6.16 3.9-9.77 4.81-.33-1.41-.5-2.88-.5-4.39 0-9.26 6.45-17 15.1-18.99 1.24-4.74 3.71-9.23 7.43-12.95 4.62-4.62 10.43-7.32 16.44-8.11 2.12-27.63 25.2-49.38 53.36-49.38 27.87 0 50.76 21.3 53.28 48.51 6.5 2.64 11.97 7.29 15.62 13.19 10.06-.53 19.54 5.86 22.51 15.94 1.32 4.47 1.17 9.02-.16 13.13z" fill="#ebebff"/></g><g><g><g><path d="m101.106 69.914-3.799-10.914c-.449-1.29-1.665-2.154-3.031-2.154h-38.498c-1.772 0-3.209 1.437-3.209 3.209v79.779h100.29v-66.71c0-1.772-1.437-3.209-3.209-3.209h-48.544z" fill="#ffab66"/><path d="m68.849 99.597-16.28 40.236h100.29l15.306-37.829c.854-2.11-.699-4.413-2.975-4.413h-93.366c-1.308.001-2.485.794-2.975 2.006z" fill="#ffd6bb"/></g><g><path d="m389.427 358.235-3.799-10.915c-.449-1.29-1.665-2.154-3.031-2.154h-38.498c-1.772 0-3.209 1.437-3.209 3.209v79.779h100.29v-66.71c0-1.772-1.437-3.209-3.209-3.209z" fill="#ffab66"/><path d="m357.17 387.918-16.28 40.236h100.29l15.306-37.829c.854-2.11-.699-4.413-2.975-4.413h-93.366c-1.308.001-2.485.794-2.975 2.006z" fill="#ffd6bb"/></g></g><g><g><path d="m101.106 358.235-3.799-10.915c-.449-1.29-1.665-2.154-3.031-2.154h-38.498c-1.772 0-3.209 1.437-3.209 3.209v79.779h100.29v-66.71c0-1.772-1.437-3.209-3.209-3.209z" fill="#ffab66"/><path d="m68.849 387.918-16.28 40.236h100.29l15.306-37.829c.854-2.11-.699-4.413-2.975-4.413h-93.366c-1.308.001-2.485.794-2.975 2.006z" fill="#ffd6bb"/></g><g><path d="m389.427 69.914-3.799-10.914c-.449-1.29-1.665-2.154-3.031-2.154h-38.498c-1.772 0-3.209 1.437-3.209 3.209v79.779h100.29v-66.71c0-1.772-1.437-3.209-3.209-3.209h-48.544z" fill="#ffab66"/><path d="m357.17 99.597-16.28 40.236h100.29l15.306-37.829c.854-2.11-.699-4.413-2.975-4.413h-93.366c-1.308.001-2.485.794-2.975 2.006z" fill="#ffd6bb"/></g></g></g><circle cx="84.714" cy="225.571" fill="#ff6c6c" r="13.932"/><circle cx="416.807" cy="225.571" fill="#ff6c6c" r="13.932"/><g><g fill="#00c"><path d="m453.511 380.913h-7.331v-19.468c0-4.526-3.683-8.209-8.209-8.209h-16.164v-109.424c8.017-2.201 13.933-9.534 13.933-18.24s-5.916-16.039-13.933-18.24v-62.497h19.373c2.037 0 3.871-1.236 4.635-3.125l15.307-37.83c1.025-2.534.726-5.4-.803-7.667-1.528-2.267-4.073-3.62-6.808-3.62h-7.331v-19.469c0-4.526-3.683-8.209-8.209-8.209h-44.989l-2.632-7.56c-1.147-3.295-4.263-5.509-7.752-5.509h-38.499c-4.526 0-8.209 3.683-8.209 8.209v79.764c0 2.711 2.283 5.015 5 5.015h70.917v62.497c-6.421 1.763-11.478 6.819-13.241 13.24h-67.548c-2.553-17.532-11.053-33.647-24.23-45.725-14.264-13.072-32.781-20.271-52.142-20.271-19.579 0-38.252 7.341-52.578 20.671-12.955 12.054-21.275 27.994-23.798 45.324h-75.316c-1.763-6.421-6.819-11.478-13.241-13.24v-62.497h48.427 14.719c2.037 0 3.871-1.236 4.635-3.125l15.306-37.828c1.025-2.534.726-5.401-.803-7.667-1.528-2.267-4.073-3.621-6.807-3.621h-7.331v-19.468c0-4.526-3.683-8.209-8.21-8.209h-44.989l-2.631-7.557c-1.146-3.297-4.262-5.512-7.753-5.512h-38.498c-4.526 0-8.209 3.683-8.209 8.209v79.779c0 2.714 2.285 5 5 5h27.145v62.498c-8.016 2.201-13.932 9.534-13.932 18.24s5.915 16.039 13.932 18.24v96.355h-23.936c-4.526 0-8.209 3.683-8.209 8.209v79.779c0 2.714 2.285 5 5 5h100.29c2.037 0 3.871-1.236 4.635-3.125l15.306-37.829c1.025-2.534.726-5.401-.803-7.667-1.528-2.267-4.073-3.621-6.807-3.621h-7.331v-19.468c0-4.526-3.683-8.209-8.21-8.209h-44.989l-2.631-7.557c-1.146-3.297-4.262-5.512-7.753-5.512h-4.563v-96.355c6.422-1.763 11.478-6.819 13.241-13.24h57.38c-1.169.951-2.309 1.945-3.39 3.025-4.769 4.768-8.359 10.58-10.49 16.942-12.721 4.215-21.368 16.026-21.368 29.681 0 17.255 14.037 31.293 31.292 31.293 5.652 0 11.054-1.475 15.834-4.299 6.777 5.322 15.091 8.213 23.81 8.213 9.111 0 17.723-3.125 24.636-8.875 4.823 2.726 9.966 4.856 15.333 6.352 2.66.739 5.418-.815 6.158-3.476.741-2.66-.814-5.417-3.475-6.158-5.658-1.575-11.021-3.977-15.938-7.138-1.994-1.282-4.612-.987-6.272.705-5.434 5.539-12.693 8.59-20.441 8.59-7.486 0-14.57-2.877-19.947-8.101-1.794-1.745-4.603-1.892-6.57-.348-3.781 2.967-8.32 4.535-13.126 4.535-11.74 0-21.292-9.552-21.292-21.293 0-9.977 6.782-18.506 16.493-20.742 1.813-.417 3.245-1.808 3.716-3.608 1.5-5.74 4.516-10.996 8.72-15.201 5.261-5.261 11.934-8.554 19.296-9.524 2.344-.309 4.151-2.218 4.332-4.575 2.662-34.762 32.093-61.993 67.003-61.993 16.853 0 32.971 6.266 45.385 17.644 12.338 11.307 19.98 26.672 21.521 43.263.173 1.861 1.368 3.47 3.101 4.172 7.682 3.114 14.323 8.722 18.701 15.791.962 1.552 2.685 2.458 4.513 2.361 11.615-.612 22.016 6.762 25.309 17.924 3.907 13.245-3.69 27.2-16.936 31.106-5.531 1.633-11.277 1.334-16.612-.865-1.691-.698-3.627-.416-5.047.733-7.064 5.706-15.6 8.721-24.685 8.721-7.955 0-15.619-2.366-22.165-6.843-1.551-1.06-3.562-1.162-5.212-.265-3.938 2.143-8.146 3.833-12.503 5.025-2.664.728-4.233 3.478-3.505 6.142.729 2.664 3.477 4.235 6.142 3.504 4.135-1.13 8.155-2.646 11.988-4.516 7.624 4.558 16.294 6.954 25.255 6.954 10.275 0 20.353-3.25 28.683-9.205 6.624 2.095 13.797 2.181 20.491.208 18.533-5.467 29.164-24.994 23.697-43.528-4.329-14.674-17.447-24.666-32.494-25.114-1.831-2.599-3.914-5.016-6.204-7.215h54.498c1.763 6.421 6.819 11.478 13.241 13.24v109.424h-18.825l-2.632-7.56c-1.147-3.295-4.263-5.509-7.752-5.509h-38.499c-4.526 0-8.209 3.683-8.209 8.209v79.779c0 2.714 2.285 5 5 5h100.29c2.037 0 3.871-1.236 4.635-3.125l15.307-37.829c1.025-2.534.726-5.4-.803-7.667s-4.077-3.623-6.811-3.623zm-46.331-288.321h-47.035c-3.362 0-6.35 2.014-7.609 5.13l-6.646 16.424v-52.3h35.435l3.382 9.713c.699 2.009 2.594 3.356 4.722 3.356h46.752v22.677c0 2.761 2.238 5 5 5h9.675l-13.046 32.242h-89.502l13.045-32.242h45.828c2.762 0 5-2.239 5-5s-2.24-5-5.001-5zm-314.177-30.746 3.382 9.713c.699 2.009 2.594 3.356 4.722 3.356h46.753v17.677h-76.036c-3.36 0-6.347 2.013-7.609 5.127 0 0-.001.001-.001.002l-6.645 16.423v-52.298zm-19.973 40.746h89.503l-13.045 32.242h-11.734-77.768zm76.458 320.562h-42.481-47.021l13.044-32.242h89.503zm-53.103-63.275c.699 2.009 2.594 3.356 4.722 3.356h46.753v17.677h-76.036c-3.36 0-6.347 2.013-7.609 5.127 0 .001-.001.002-.001.003l-6.645 16.423v-52.299h35.434zm-11.671-125.376c-4.925 0-8.932-4.007-8.932-8.932s4.007-8.932 8.932-8.932c4.926 0 8.933 4.007 8.933 8.932s-4.007 8.932-8.933 8.932zm323.16-8.932c0-4.925 4.007-8.932 8.933-8.932s8.933 4.007 8.933 8.932-4.007 8.932-8.933 8.932-8.933-4.006-8.933-8.932zm-26.55 124.596 3.382 9.713c.699 2.009 2.594 3.356 4.722 3.356h46.752v17.677h-76.035c-3.362 0-6.349 2.014-7.609 5.13l-6.646 16.424v-52.3zm56.485 72.987h-39.418-50.084l13.045-32.242h89.503z"/><path d="m279.079 92.243c1.69 0 3.339-.857 4.279-2.408 1.433-2.361.68-5.436-1.681-6.868-8.143-4.94-17.489-7.551-27.031-7.551s-18.89 2.611-27.032 7.551c-2.36 1.433-3.113 4.507-1.681 6.868s4.506 3.116 6.868 1.682c6.578-3.991 14.132-6.101 21.845-6.101 7.712 0 15.266 2.109 21.844 6.101.811.491 1.705.726 2.589.726z"/><path d="m254.646 95.575c-4.584 0-9.076 1.255-12.989 3.629-2.361 1.432-3.114 4.507-1.683 6.868 1.434 2.361 4.51 3.115 6.868 1.682 4.701-2.851 10.906-2.851 15.607 0 .811.492 1.705.726 2.588.726 1.69 0 3.34-.857 4.28-2.408 1.432-2.361.679-5.436-1.683-6.868-3.911-2.374-8.404-3.629-12.988-3.629z"/><path d="m219.812 74.433c10.491-6.364 22.537-9.729 34.835-9.729s24.343 3.364 34.834 9.729c.811.492 1.705.726 2.589.726 1.69 0 3.339-.857 4.279-2.408 1.433-2.361.68-5.436-1.681-6.868-12.056-7.313-25.895-11.179-40.021-11.179-14.128 0-27.967 3.866-40.022 11.179-2.36 1.432-3.113 4.507-1.681 6.868 1.431 2.361 4.506 3.116 6.868 1.682z"/></g><g opacity=".1"><g><path d="m279.079 119.243c-.883 0-1.778-.234-2.588-.726-6.579-3.991-14.132-6.1-21.845-6.1-7.712 0-15.266 2.109-21.845 6.1-2.361 1.433-5.436.68-6.868-1.682-1.432-2.361-.679-5.436 1.682-6.868 8.143-4.939 17.49-7.55 27.031-7.55 9.542 0 18.889 2.611 27.031 7.55 2.361 1.432 3.114 4.507 1.682 6.868-.94 1.55-2.59 2.408-4.28 2.408z" fill="#00c"/></g><g><path d="m265.038 135.479c-.883 0-1.778-.234-2.588-.726-4.698-2.85-10.908-2.85-15.606 0-2.361 1.433-5.436.68-6.868-1.682s-.679-5.436 1.682-6.868c3.914-2.374 8.405-3.628 12.99-3.628 4.584 0 9.076 1.255 12.99 3.628 2.361 1.432 3.114 4.507 1.682 6.868-.943 1.551-2.592 2.408-4.282 2.408z" fill="#00c"/></g><g><path d="m292.07 102.158c-.883 0-1.778-.234-2.588-.726-10.491-6.364-22.537-9.729-34.835-9.729s-24.344 3.364-34.835 9.729c-2.362 1.433-5.437.68-6.868-1.682-1.432-2.361-.679-5.436 1.682-6.868 12.055-7.313 25.895-11.179 40.021-11.179 14.127 0 27.966 3.866 40.021 11.179 2.361 1.432 3.114 4.507 1.682 6.868-.941 1.551-2.591 2.408-4.28 2.408z" fill="#00c"/></g></g></g></g></g><g><path d="m292.395 395.68c-7.175 0-13.012-5.837-13.012-13.012s5.837-13.012 13.012-13.012 13.012 5.837 13.012 13.012-5.838 13.012-13.012 13.012zm0-16.024c-1.661 0-3.012 1.351-3.012 3.012s1.351 3.012 3.012 3.012 3.012-1.351 3.012-3.012-1.351-3.012-3.012-3.012z" fill="#ff6c6c"/></g><g><path d="m52.569 205.892c-7.175 0-13.012-5.837-13.012-13.012s5.837-13.012 13.012-13.012 13.012 5.837 13.012 13.012-5.837 13.012-13.012 13.012zm0-16.024c-1.661 0-3.012 1.351-3.012 3.012s1.351 3.012 3.012 3.012 3.012-1.351 3.012-3.012-1.351-3.012-3.012-3.012z" fill="#ff6c6c"/></g><g><path d="m254.646 440.778c-7.175 0-13.012-5.837-13.012-13.012s5.837-13.012 13.012-13.012 13.012 5.837 13.012 13.012-5.837 13.012-13.012 13.012zm0-16.024c-1.661 0-3.012 1.351-3.012 3.012s1.351 3.012 3.012 3.012 3.012-1.351 3.012-3.012-1.35-3.012-3.012-3.012z" fill="#6c6cff"/></g><g><path d="m467.646 207.951c-1.326 0-2.598-.527-3.535-1.464l-11.293-11.292c-.938-.938-1.465-2.209-1.465-3.536s.526-2.598 1.465-3.536l11.293-11.292c.938-.938 2.209-1.464 3.535-1.464 1.326 0 2.598.527 3.535 1.464l11.292 11.292c1.953 1.953 1.953 5.119 0 7.071l-11.292 11.292c-.937.938-2.208 1.465-3.535 1.465zm-4.221-16.293 4.222 4.221 4.221-4.221-4.221-4.221z" fill="#ff9d33"/></g><g><path d="m44.354 327.067c-1.326 0-2.598-.527-3.535-1.464l-11.293-11.293c-1.953-1.953-1.953-5.119 0-7.071l11.292-11.292c.938-.938 2.209-1.464 3.535-1.464s2.598.527 3.535 1.464l11.293 11.292c.938.938 1.465 2.209 1.465 3.536s-.526 2.598-1.465 3.536l-11.293 11.292c-.937.937-2.208 1.464-3.534 1.464zm-4.221-16.293 4.221 4.221 4.222-4.221-4.222-4.221z" fill="#6c6cff"/></g></g></g></svg>