<svg height="512" viewBox="0 0 58 59" width="512" xmlns="http://www.w3.org/2000/svg"><g id="Page-1" fill="none" fill-rule="evenodd"><g id="049---Supermarket-Marker" fill-rule="nonzero"><path id="Shape" d="m57.52 57.66-3.52-9.93-2.15-6-1.76-4.92-1.57-4.42-.25-.7c-.1363202-.4183546-.5300769-.6984495-.97-.69h-5.57c-.5475185 1.1367403-1.1584816 2.2418156-1.83 3.31-.1216142.2139963-.2551581.4209893-.4.62-.42.65-.86 1.28-1.29 1.87-2.4698189 3.3693316-5.4174567 6.3607629-8.75 8.88l-.46.32-.11-.08c-1.4167124-1.0168121-2.7539139-2.1400614-4-3.36-1.264866-1.2078749-2.4601232-2.4865999-3.58-3.83-1.001921-1.2122566-1.9334522-2.4810088-2.79-3.8-.1448419-.1990107-.2783858-.4060037-.4-.62-.6783368-1.0677161-1.2959821-2.1728004-1.85-3.31h-5.56c-.4428242-.0261489-.84994889.2425534-1 .66l-.64 1.81-3.07 8.85-1.62 4.42-2 5.5-1.9 5.42c-.0514077.1797296-.0514077.3702704 0 .55.10064169.4691379.52030719.8006736 1 .79h55.1c.3258099-.0001386.6311253-.1589911.8182321-.4257178s.2325433-.6078823.1217679-.9142822z" fill="#f3d55b"/><path id="Shape" d="m48.49 32.36-10.28 4.44c.43-.59.87-1.22 1.29-1.87.1448419-.1990107.2783858-.4060037.4-.62.6715184-1.0681844 1.2824815-2.1732597 1.83-3.31h5.57c.4210301.0001791.7968498.2640526.94.66z" fill="#e57e25"/><path id="Shape" d="m24.87 42.56-9.18 4-9.69-4.24 3.16-8.85 12.17 5.26c1.1069412 1.3423051 2.2888239 2.6210086 3.54 3.83z" fill="#24ae5f"/><path id="Shape" d="m56.58 59h-6.06l-26-11.21 4.34-1.87.14.08.45-.32 9.89-4.26 2.66 1.14 4 1.73 8 3.44 3.54 9.93c.1120573.3097468.064391.6548103-.1274428.9225783s-.5032275.4238924-.8325572.4174217z" fill="#bdc3c7"/><path id="Shape" d="m9.78 49.06-7.36 3.18 1.96-5.5z" fill="#24ae5f"/><path id="Shape" d="m38.72 59h-37.3c-.47969281.0106736-.89935831-.3208621-1-.79l18.22-7.87z" fill="#3b97d3"/><path id="Shape" d="m51.82 41.7-6.59-2.84 4.83-2.08z" fill="#e57e25"/><path id="Shape" d="m13 17.15c.0476398 6.0865073 1.8156801 12.035443 5.1 17.16.1216142.2139963.2551581.4209893.4.62 2.7928167 4.3016642 6.35184 8.0538917 10.5 11.07 4.14816-3.0161083 7.7071833-6.7683358 10.5-11.07.1448419-.1990107.2783858-.4060037.4-.62 3.2843199-5.124557 5.0523602-11.0734927 5.1-17.16 0-8.836556-7.163444-16-16-16s-16 7.163444-16 16z" fill="#e64c3c"/><g fill="#ecf0f1"><path id="Shape" d="m29 47c-.2163702 0-.4269038-.0701779-.6-.2l-.09-.07c-1.4669822-1.0373532-2.8481065-2.1910768-4.13-3.45-1.2938862-1.2321527-2.5159004-2.5376378-3.66-3.91-1.0294631-1.2424197-1.9844672-2.544698-2.86-3.9-.1580541-.2190921-.3049089-.4460495-.44-.68-.6817601-1.0829072-1.2994853-2.2048297-1.85-3.36-2.2042273-4.4383395-3.3573259-9.3244662-3.37-14.28 0-9.38884075 7.6111593-17 17-17s17 7.61115925 17 17c-.0139996 4.9585767-1.1669876 9.8476565-3.37 14.29-.5618302 1.167992-1.1895065 2.3031512-1.88 3.4-.11.2-.27.43-.43.66-.41.64-.86 1.28-1.3 1.89-2.5396572 3.4535424-5.5718981 6.5161057-9 9.09l-.09.07-.39.27c-.1587626.1110437-.3463637.1735774-.54.18zm0-45c-8.3130586.07142243-15.0112961 6.83664225-15 15.15.0180892 4.6535037 1.1025199 9.2409534 3.17 13.41.5464398 1.1082317 1.1574918 2.1834159 1.83 3.22.1083161.1993368.232025.3899155.37.57.8381435 1.3000475 1.7531023 2.5489329 2.74 3.74 1.0959154 1.3142092 2.2644031 2.5661602 3.5 3.75 1.0711482 1.0427539 2.2031312 2.0211345 3.39 2.93 3.1950645-2.4368151 6.0238975-5.3195307 8.4-8.56.42-.57.85-1.19 1.26-1.82.1317708-.178832.2520143-.3658775.36-.56.6640918-1.051804 1.2683831-2.1401961 1.81-3.26 2.0666169-4.1729228 3.1509571-8.7634103 3.17-13.42.0112961-8.31335775-6.6869414-15.07857757-15-15.15z"/><path id="Shape" d="m37.19 26c-.5522847 0-1-.4477153-1-1s.4477153-1 1-1c.5154781.0025832.948458-.3870987 1-.9l.71-7.1h-17.9c-.5522847 0-1-.4477153-1-1s.4477153-1 1-1h17.89c.5678398-.0014967 1.109548.2384545 1.49.66.3762942.4199036.5578632.9791362.5 1.54l-.71 7.1c-.1538763 1.5310707-1.4412183 2.6974545-2.98 2.7z"/><path id="Shape" d="m37.19 26h-13.37c-.9686161.0185624-1.811263-.6597685-2-1.61l-2.24-11.39h-2.58c-.5522847 0-1-.4477153-1-1s.4477153-1 1-1h2.58c.9686161-.0185624 1.811263.6597685 2 1.61l2.24 11.39h13.37c.5522847 0 1 .4477153 1 1s-.4477153 1-1 1z"/></g><circle id="Oval" cx="35" cy="28" fill="#fff" r="2"/><circle id="Oval" cx="25" cy="28" fill="#fff" r="2"/></g></g></svg>