<svg xmlns="http://www.w3.org/2000/svg" xmlns:xlink="http://www.w3.org/1999/xlink" id="Capa_1" x="0" y="0" version="1.1" viewBox="0 0 512 512" xml:space="preserve" style="enable-background:new 0 0 512 512"><circle style="fill:#35ccff" cx="256" cy="256" r="256"/><path style="fill:#00baff" d="M510.285,285.618L387.333,162.667l-262.667,259l86.398,86.398C225.654,510.648,240.669,512,256,512	C387.365,512,495.601,413.048,510.285,285.618z"/><polygon style="fill:#fff" points="315 90.333 124.667 90.333 124.667 421.667 387.333 421.667 387.333 162.667"/><polygon style="fill:#e0e0e0" points="387.333 162.667 315 90.333 255.619 90.333 255.619 421.667 387.333 421.667"/><polygon style="fill:silver" points="315 162.666 387.333 162.666 315 90.334"/><g><circle style="fill:#f1333f" cx="173.35" cy="140.21" r="14.778"/><circle style="fill:#f1333f" cx="218.26" cy="185.12" r="14.778"/><rect style="fill:#f1333f" width="12.915" height="92.389" x="189.348" y="116.471" transform="matrix(-0.7071 -0.7071 0.7071 -0.7071 219.238 416.1432)"/></g><rect style="fill:gray" width="194.71" height="20" x="158.65" y="221.23"/><rect style="fill:#666" width="97.73" height="20" x="255.62" y="221.23"/><rect style="fill:gray" width="194.71" height="20" x="158.65" y="269.06"/><rect style="fill:#666" width="97.73" height="20" x="255.62" y="269.06"/><rect style="fill:gray" width="194.71" height="20" x="158.65" y="316.9"/><rect style="fill:#666" width="97.73" height="20" x="255.62" y="316.9"/><rect style="fill:gray" width="194.71" height="20" x="158.65" y="364.73"/><rect style="fill:#666" width="97.73" height="20" x="255.62" y="364.73"/></svg>