<?xml version="1.0" encoding="iso-8859-1"?>
<!-- Generator: Adobe Illustrator 19.0.0, SVG Export Plug-In . SVG Version: 6.00 Build 0)  -->
<svg version="1.1" id="Capa_1" xmlns="http://www.w3.org/2000/svg" xmlns:xlink="http://www.w3.org/1999/xlink" x="0px" y="0px"
	 viewBox="0 0 512 512" style="enable-background:new 0 0 512 512;" xml:space="preserve">
<circle style="fill:#35CCFF;" cx="256" cy="256" r="256"/>
<path style="fill:#00BAFF;" d="M510.285,285.618L387.333,162.667l-262.667,259l86.398,86.398C225.654,510.648,240.669,512,256,512
	C387.365,512,495.601,413.048,510.285,285.618z"/>
<polygon style="fill:#FFFFFF;" points="315,90.333 124.667,90.333 124.667,421.667 387.333,421.667 387.333,162.667 "/>
<polygon style="fill:#E0E0E0;" points="387.333,162.667 315,90.333 255.619,90.333 255.619,421.667 387.333,421.667 "/>
<polygon style="fill:#C0C0C0;" points="315,162.666 387.333,162.666 315,90.334 "/>
<g>
	<circle style="fill:#F1333F;" cx="173.35" cy="140.21" r="14.778"/>
	<circle style="fill:#F1333F;" cx="218.26" cy="185.12" r="14.778"/>
	
		<rect x="189.348" y="116.471" transform="matrix(-0.7071 -0.7071 0.7071 -0.7071 219.238 416.1432)" style="fill:#F1333F;" width="12.915" height="92.389"/>
</g>
<rect x="158.65" y="221.23" style="fill:#808080;" width="194.71" height="20"/>
<rect x="255.62" y="221.23" style="fill:#666666;" width="97.73" height="20"/>
<rect x="158.65" y="269.06" style="fill:#808080;" width="194.71" height="20"/>
<rect x="255.62" y="269.06" style="fill:#666666;" width="97.73" height="20"/>
<rect x="158.65" y="316.9" style="fill:#808080;" width="194.71" height="20"/>
<rect x="255.62" y="316.9" style="fill:#666666;" width="97.73" height="20"/>
<rect x="158.65" y="364.73" style="fill:#808080;" width="194.71" height="20"/>
<rect x="255.62" y="364.73" style="fill:#666666;" width="97.73" height="20"/>
<g>
</g>
<g>
</g>
<g>
</g>
<g>
</g>
<g>
</g>
<g>
</g>
<g>
</g>
<g>
</g>
<g>
</g>
<g>
</g>
<g>
</g>
<g>
</g>
<g>
</g>
<g>
</g>
<g>
</g>
</svg>
