<svg width="100" height="100" viewBox="0 0 100 100" fill="none" xmlns="http://www.w3.org/2000/svg">
<path d="M84.1799 84.375C82.0225 84.375 80.2736 82.6262 80.2736 80.4688C80.2736 78.3113 82.0225 76.5625 84.1799 76.5625C86.3373 76.5625 88.0861 78.3113 88.0861 80.4688C88.0861 82.6262 86.3373 84.375 84.1799 84.375ZM97.0098 67.3061C95.3377 63.5658 91.5713 61.1424 87.4051 61.1328H75.223C75.2143 61.1328 75.206 61.1328 75.1971 61.1328C70.8025 61.1328 66.9686 63.7227 65.4258 67.7357C65.2205 68.2697 64.9695 68.9424 64.7076 69.7266H39.1322C38.0762 69.7266 37.0652 70.1541 36.3295 70.9117L29.6193 77.8234C28.1414 79.3457 28.1488 81.7693 29.6359 83.2824L36.4719 90.2379C37.2062 90.9852 38.2102 91.4061 39.2578 91.4061H51.9531C54.1105 91.4061 55.8594 89.6572 55.8594 87.4998C55.8594 85.3424 54.1105 83.5936 51.9531 83.5936H40.8957L37.8824 80.5275L40.7842 77.5391H67.6379C69.4375 77.5391 71.0041 76.3096 71.432 74.5617C71.748 73.2713 72.1445 72.0307 72.718 70.5391C73.0961 69.5555 74.0457 68.9453 75.2064 68.9453C75.209 68.9453 75.2115 68.9453 75.2141 68.9453H87.3959C88.5006 68.9479 89.4514 69.5416 89.8773 70.4945C90.926 72.8406 92.1781 76.4727 92.1875 80.4527C92.1969 84.4623 90.9461 88.1775 89.8947 90.5883C89.4709 91.5605 88.5121 92.1875 87.4416 92.1875C87.4395 92.1875 87.4373 92.1875 87.4351 92.1875H75.106C74.0254 92.185 73.0131 91.4896 72.5873 90.4574C72.1305 89.3498 71.7346 88.0852 71.3769 86.5908C70.8748 84.4928 68.7662 83.199 66.6689 83.701C64.5707 84.2031 63.2769 86.3111 63.7791 88.4092C64.2324 90.3035 64.7514 91.9479 65.3652 93.4361C67.0057 97.4135 70.8221 99.9898 75.0971 99.9998H87.4262C87.4346 99.9998 87.4424 99.9998 87.4508 99.9998C91.6209 99.9996 95.3896 97.533 97.0562 93.7105C98.4062 90.6146 100.013 85.7982 100 80.4342C99.9875 75.0848 98.367 70.3424 97.0098 67.3061ZM29.59 96.0938C29.59 98.2512 27.8412 100 25.6838 100H11.8543C8.27441 100 4.92617 98.4076 2.66836 95.6311C0.399021 92.8408 -0.481057 89.2166 0.253709 85.6881C2.59804 74.427 8.8084 64.1791 17.7404 56.832C22.6119 52.825 28.1783 49.7883 34.1102 47.8355C27.6354 42.9867 23.4377 35.2557 23.4377 26.5625C23.4377 11.916 35.3535 0 50.0002 0C64.6469 0 76.5627 11.916 76.5627 26.5625C76.5627 35.2479 72.3723 42.9729 65.9072 47.8225C66.5615 48.0381 67.2127 48.2654 67.8594 48.5084C69.8791 49.2668 70.9016 51.5189 70.1432 53.5385C69.3848 55.5582 67.1326 56.5811 65.1131 55.8223C60.6 54.1275 55.8586 53.2148 51.0045 53.1041C50.6709 53.1166 50.3365 53.125 50.0002 53.125C49.6668 53.125 49.3353 53.1168 49.0047 53.1045C29.1539 53.5662 11.9586 67.7957 7.90215 87.2803C7.64883 88.4969 7.95058 89.7438 8.72949 90.702C9.18066 91.2568 10.1867 92.1875 11.8543 92.1875H25.6838C27.8412 92.1875 29.59 93.9363 29.59 96.0938ZM49.0844 45.2898C49.3895 45.2844 49.6947 45.2799 50.0002 45.2799C50.3049 45.2799 50.609 45.2846 50.9131 45.29C60.8295 44.8121 68.7502 36.5951 68.7502 26.5625C68.7502 16.2236 60.3391 7.8125 50.0002 7.8125C39.6613 7.8125 31.2502 16.2236 31.2502 26.5625C31.2502 36.5941 39.1693 44.8105 49.0844 45.2898Z" fill="url(#paint0_linear)"/>
<defs>
<linearGradient id="paint0_linear" x1="0.00027949" y1="50" x2="100" y2="50" gradientUnits="userSpaceOnUse">
<stop stop-color="#19D895"/>
</linearGradient>
</defs>
</svg>
