<svg xmlns="http://www.w3.org/2000/svg" xmlns:xlink="http://www.w3.org/1999/xlink" id="Capa_1" x="0" y="0" version="1.1" viewBox="0 0 511.997 511.997" xml:space="preserve" style="enable-background:new 0 0 511.997 511.997"><path style="fill:#4398d1" d="M147.547,39.064h225.612c19.168,0,34.71,15.541,34.71,34.71v399.159	c0,19.168-15.541,34.71-34.71,34.71H147.547c-19.168,0-34.71-15.541-34.71-34.71V73.773	C112.837,54.605,128.379,39.064,147.547,39.064z"/><path style="fill:#3e8cc7" d="M112.837,472.065v0.868c0,19.168,15.541,34.71,34.71,34.71h225.612	c19.168,0,34.71-15.541,34.71-34.71V229.966C329.772,394.836,199.611,446.901,112.837,472.065z"/><path style="fill:#87ced9" d="M156.224,91.128h208.257c4.79,0,8.677,3.887,8.677,8.677v156.193c0,4.79-3.887,8.677-8.677,8.677	H156.224c-4.79,0-8.677-3.887-8.677-8.677V99.806C147.547,95.016,151.426,91.128,156.224,91.128z"/><rect style="fill:#de4c3c" width="60.742" height="34.71" x="199.576" y="229.966"/><rect style="fill:#f46b27" width="52.064" height="34.71" x="147.512" y="229.966"/><rect style="fill:#fdb62f" width="60.742" height="34.71" x="260.318" y="229.966"/><rect style="fill:#88b337" width="52.064" height="34.71" x="321.06" y="229.966"/><g><path style="fill:#ebebeb" d="M164.902,438.223h17.355c9.588,0,17.355,7.766,17.355,17.355l0,0 c0,9.589-7.766,17.355-17.355,17.355h-17.355c-9.589,0-17.355-7.766-17.355-17.355l0,0 C147.547,445.99,155.313,438.223,164.902,438.223z"/><path style="fill:#ebebeb" d="M251.675,438.223h17.355c9.589,0,17.355,7.766,17.355,17.355l0,0 c0,9.589-7.766,17.355-17.355,17.355h-17.355c-9.588,0-17.355-7.766-17.355-17.355l0,0 C234.321,445.99,242.087,438.223,251.675,438.223z"/><path style="fill:#ebebeb" d="M164.902,368.804h17.355c9.588,0,17.355,7.766,17.355,17.355l0,0 c0,9.589-7.766,17.355-17.355,17.355h-17.355c-9.589,0-17.355-7.766-17.355-17.355l0,0 C147.547,376.571,155.313,368.804,164.902,368.804z"/><path style="fill:#ebebeb" d="M251.675,368.804h17.355c9.589,0,17.355,7.766,17.355,17.355l0,0 c0,9.589-7.766,17.355-17.355,17.355h-17.355c-9.588,0-17.355-7.766-17.355-17.355l0,0 C234.321,376.571,242.087,368.804,251.675,368.804z"/><path style="fill:#ebebeb" d="M164.902,299.385h17.355c9.588,0,17.355,7.766,17.355,17.355l0,0 c0,9.589-7.766,17.355-17.355,17.355h-17.355c-9.589,0-17.355-7.766-17.355-17.355l0,0 C147.547,307.151,155.313,299.385,164.902,299.385z"/><path style="fill:#ebebeb" d="M251.675,299.385h17.355c9.589,0,17.355,7.766,17.355,17.355l0,0 c0,9.589-7.766,17.355-17.355,17.355h-17.355c-9.588,0-17.355-7.766-17.355-17.355l0,0 C234.321,307.151,242.087,299.385,251.675,299.385z"/><path style="fill:#ebebeb" d="M338.449,438.223h17.355c9.589,0,17.355,7.766,17.355,17.355l0,0 c0,9.589-7.766,17.355-17.355,17.355h-17.355c-9.588,0-17.355-7.766-17.355-17.355l0,0 C321.094,445.99,328.861,438.223,338.449,438.223z"/><path style="fill:#ebebeb" d="M338.449,368.804h17.355c9.589,0,17.355,7.766,17.355,17.355l0,0 c0,9.589-7.766,17.355-17.355,17.355h-17.355c-9.588,0-17.355-7.766-17.355-17.355l0,0 C321.094,376.571,328.861,368.804,338.449,368.804z"/><path style="fill:#ebebeb" d="M338.449,299.385h17.355c9.589,0,17.355,7.766,17.355,17.355l0,0 c0,9.589-7.766,17.355-17.355,17.355h-17.355c-9.588,0-17.355-7.766-17.355-17.355l0,0 C321.094,307.151,328.861,299.385,338.449,299.385z"/></g><path style="fill:#de4c3c" d="M216.966,4.354h268.999c14.378,0,26.032,11.654,26.032,26.032v138.838	c0,14.378-11.654,26.032-26.032,26.032H216.966c-14.378,0-26.032-11.654-26.032-26.032V30.387	C190.934,16.008,202.587,4.354,216.966,4.354z"/><rect style="fill:#87ced9" width="182.225" height="121.483" x="260.318" y="39.064"/><polygon style="fill:#6cbbc7" points="260.353 143.192 260.353 160.547 442.578 160.547 442.578 39.064 425.223 39.064"/><path style="fill:#fff" d="M407.868,91.128c0-14.378-11.654-26.032-26.032-26.032h-6.595	c-9.884-0.017-18.925,5.562-23.342,14.404l-16.4,32.887c-1.484,2.95-4.512,4.799-7.81,4.773h-6.595c-4.79,0-8.677-3.887-8.677-8.677	V91.128c0-4.79,3.887-8.677,8.677-8.677h8.677V65.096h-8.677c-14.378,0-26.032,11.654-26.032,26.032h-8.677v17.355h8.677	c0,14.378,11.654,26.032,26.032,26.032h6.595c9.884,0.017,18.925-5.562,23.342-14.404l16.4-32.887	c1.484-2.95,4.512-4.799,7.81-4.773h6.595c4.79,0,8.677,3.887,8.677,8.677v17.355c0,4.79-3.887,8.677-8.677,8.677v17.355	c14.378,0,26.032-11.654,26.032-26.032h8.677V91.128H407.868z"/><g><path style="fill:#87ced9" d="M52.53,203.934c-23.724-23.724-23.724-62.182-0.009-85.897c0,0,0,0,0.009-0.009l12.235,12.322 c-16.938,16.938-16.938,44.402,0,61.349L52.53,203.934z"/><path style="fill:#87ced9" d="M27.973,228.665c-37.287-37.269-37.295-97.707-0.035-134.985c0.009-0.009,0.017-0.017,0.035-0.035 l12.322,12.322c-30.501,30.492-30.51,79.945-0.017,110.446c0.009,0.009,0.009,0.009,0.017,0.017L27.973,228.665z"/></g><g><rect style="fill:#c74436" width="17.355" height="78.096" x="216.931" y="56.419"/><rect style="fill:#c74436" width="17.355" height="17.355" x="468.575" y="91.128"/><rect style="fill:#c74436" width="17.355" height="17.355" x="468.575" y="56.419"/><rect style="fill:#c74436" width="17.355" height="17.355" x="468.575" y="125.838"/></g></svg>