<svg id="Layer_1" enable-background="new 0 0 150 150" height="512" viewBox="0 0 150 150" width="512" xmlns="http://www.w3.org/2000/svg"><g><path d="m14.969 0h5.028v150h-5.028z" fill="#3a556a"/><path d="m4.811 135.258h144.507v5.028h-144.507z" fill="#3a556a"/><path d="m31.427 64.277h16.014v70.981h-16.014z" fill="#e1e6e9"/><path d="m43.442 107.411h8.017v27.847h-8.017z" fill="#e56353"/><path d="m59.799 36.167h16.014v99.091h-16.014z" fill="#e1e6e9"/><path d="m71.814 93.356h8.017v41.902h-8.017z" fill="#e56353"/><path d="m88.171 79.665h16.014v55.574h-16.014z" fill="#e1e6e9"/><path d="m100.187 115.105h8.017v20.153h-8.017z" fill="#e56353"/><path d="m116.564 51.333h16.014v83.926h-16.014z" fill="#e1e6e9"/><path d="m128.579 100.929h8.017v34.309h-8.017z" fill="#e56353"/><g fill="#3a556a"><path d="m123.592 19.75-.647 3.776 4.342.747-24.96 15.327-34.41-32.229-34.855 27.282 2.363 3.029 32.27-25.283 34.168 31.987 28.453-17.468-1.615 5.958 3.695.989 3.251-12.015z"/><path d="m.671 5.008h9.208v1.797h-9.208z"/><path d="m.671 14.903h9.208v1.797h-9.208z"/><path d="m.671 24.778h9.208v1.797h-9.208z"/><path d="m.671 34.653h9.208v1.797h-9.208z"/><path d="m.671 44.527h9.208v1.797h-9.208z"/><path d="m.671 54.402h9.208v1.797h-9.208z"/><path d="m.671 64.277h9.208v1.797h-9.208z"/><path d="m.671 74.172h9.208v1.797h-9.208z"/><path d="m.671 84.047h9.208v1.797h-9.208z"/><path d="m.671 93.922h9.208v1.797h-9.208z"/><path d="m.671 103.796h9.208v1.797h-9.208z"/><path d="m.671 113.671h9.208v1.797h-9.208z"/><path d="m.671 123.546h9.208v1.797h-9.208z"/></g></g></svg>