<svg id="Capa_1" enable-background="new 0 0 497 497" height="512" viewBox="0 0 497 497" width="512" xmlns="http://www.w3.org/2000/svg"><g><g><g><path d="m434.306 97.155h41.937c11.464 0 20.757 9.293 20.757 20.757v325.613c0 11.464-9.293 20.757-20.757 20.757h-455.486c-11.464 0-20.757-9.294-20.757-20.757v-325.613c0-11.464 9.293-20.757 20.757-20.757h283.839" fill="#f6f7f6"/></g></g><g><g><path d="m476.243 97.154h-21.937-8.063c11.464 0 20.757 9.294 20.757 20.757v325.613c0 11.464-9.293 20.757-20.757 20.757h30c11.464 0 20.757-9.293 20.757-20.757v-325.612c0-11.464-9.293-20.758-20.757-20.758z" fill="#f1f1f1"/></g></g><g><g><circle cx="369.398" cy="115.787" fill="#92e0c4" r="83.068"/></g></g><g><g><path d="m369.398 32.718c-5.125 0-10.132.488-15 1.376 38.713 7.064 68.069 40.939 68.069 81.692s-29.355 74.627-68.069 81.692c4.868.889 9.875 1.377 15 1.377 45.878 0 83.069-37.191 83.069-83.069s-37.191-83.068-83.069-83.068z" fill="#77d1b3"/></g></g><g><g><path d="m419.624 115.573c-.116-27.635-22.542-50.004-50.201-50.018v50.018z" fill="#f6f7f6"/></g></g><g><g><path d="m257.562 261.645h-197.06c-5.36 0-9.705-4.345-9.705-9.705v-17.588c0-5.36 4.345-9.705 9.705-9.705h197.06c5.36 0 9.705 4.345 9.705 9.705v17.588c.001 5.36-4.345 9.705-9.705 9.705z" fill="#f8e883"/></g></g><g><g><path d="m177.562 415.797h-117.06c-5.36 0-9.705-4.345-9.705-9.705v-17.588c0-5.36 4.345-9.705 9.705-9.705h117.06c5.36 0 9.705 4.345 9.705 9.705v17.588c.001 5.36-4.344 9.705-9.705 9.705z" fill="#77d1b3"/></g></g><g><g><path d="m177.562 185.376h-117.06c-5.36 0-9.705-4.345-9.705-9.705v-17.588c0-5.36 4.345-9.705 9.705-9.705h117.06c5.36 0 9.705 4.345 9.705 9.705v17.588c.001 5.36-4.344 9.705-9.705 9.705z" fill="#bed9fd"/></g></g><g><g><path d="m426.693 415.797h-187.06c-5.36 0-9.705-4.345-9.705-9.705v-17.588c0-5.36 4.345-9.705 9.705-9.705h187.06c5.36 0 9.705 4.345 9.705 9.705v17.588c0 5.36-4.345 9.705-9.705 9.705z" fill="#f8e883"/></g></g><g><g><path d="m127.562 340.221h-67.06c-5.36 0-9.705-4.345-9.705-9.705v-17.588c0-5.36 4.345-9.705 9.705-9.705h67.06c5.36 0 9.705 4.345 9.705 9.705v17.588c.001 5.36-4.344 9.705-9.705 9.705z" fill="#e27f86"/></g></g><g><g><path d="m427.562 340.221h-237.06c-5.36 0-9.705-4.345-9.705-9.705v-17.588c0-5.36 4.345-9.705 9.705-9.705h237.06c5.36 0 9.705 4.345 9.705 9.705v17.588c.001 5.36-4.345 9.705-9.705 9.705z" fill="#e27f86"/></g></g><g><g><path d="m419.625 123.073h-50.201c-4.142 0-7.5-3.358-7.5-7.5v-50.017c0-4.142 3.358-7.5 7.5-7.5 4.143 0 7.5 3.358 7.5 7.5v42.517h42.701c4.143 0 7.5 3.358 7.5 7.5s-3.358 7.5-7.5 7.5z" fill="#67b59f"/></g></g></g></svg>