<?xml version="1.0" encoding="iso-8859-1"?>
<!-- Generator: Adobe Illustrator 19.0.0, SVG Export Plug-In . SVG Version: 6.00 Build 0)  -->
<svg version="1.1" id="Capa_1" xmlns="http://www.w3.org/2000/svg" xmlns:xlink="http://www.w3.org/1999/xlink" x="0px" y="0px"
	 viewBox="0 0 512 512" style="enable-background:new 0 0 512 512;" xml:space="preserve">
<g>
	<rect x="185.379" y="418.957" style="fill:#95A5A5;" width="141.241" height="80.066"/>
	<path style="fill:#BDC3C7;" d="M476.69,79.448H35.31c-9.366-0.003-18.349,3.717-24.971,10.339S-0.003,105.393,0,114.759v291.31
		c-0.003,9.366,3.717,18.348,10.339,24.971c6.623,6.622,15.605,10.342,24.971,10.339H476.69c9.366,0.003,18.348-3.717,24.971-10.339
		c6.622-6.623,10.342-15.605,10.339-24.971v-291.31c0.003-9.366-3.717-18.349-10.339-24.971
		C495.038,83.165,486.055,79.446,476.69,79.448z"/>
	<path style="fill:#35495E;" d="M512,370.759v-256c0.003-9.366-3.717-18.348-10.339-24.971
		c-6.623-6.623-15.605-10.342-24.971-10.339H35.31c-9.366-0.003-18.348,3.717-24.971,10.339S-0.003,105.393,0,114.759l0,256H512z"/>
	<path style="fill:#BDC3C7;" d="M123.586,476.69h264.828c4.875,0,8.828,3.952,8.828,8.828v17.655c0,4.875-3.952,8.828-8.828,8.828
		H123.586c-4.875,0-8.828-3.952-8.828-8.828v-17.655C114.759,480.642,118.711,476.69,123.586,476.69z"/>
	<g>
		<path style="fill:#7F8C8D;" d="M70.63,229.517c-3.864,0.005-7.281-2.504-8.435-6.191c-1.154-3.687,0.224-7.697,3.401-9.895
			l114.759-79.448c2.593-1.796,5.947-2.071,8.799-0.723c2.852,1.348,4.767,4.115,5.026,7.259c0.258,3.144-1.18,6.186-3.773,7.982
			L75.647,227.948C74.173,228.97,72.423,229.518,70.63,229.517z"/>
		<path style="fill:#7F8C8D;" d="M308.957,220.69c-3.29-0.003-6.304-1.836-7.822-4.754c-1.518-2.918-1.287-6.439,0.598-9.134
			L425.319,30.25c2.813-3.943,8.278-4.882,12.246-2.106c3.969,2.777,4.959,8.232,2.219,12.226L316.198,216.922
			C314.547,219.288,311.842,220.696,308.957,220.69z"/>
		<path style="fill:#7F8C8D;" d="M308.957,238.345c-1.876,0-3.703-0.598-5.216-1.707l-132.414-97.103
			c-3.914-2.891-4.752-8.404-1.873-12.328c2.879-3.924,8.388-4.779,12.321-1.914l132.414,97.103
			c3.079,2.259,4.357,6.242,3.166,9.871S312.776,238.349,308.957,238.345z"/>
	</g>
	<path style="fill:#F0C419;" d="M185.379,203.034v132.414H70.621v-52.966c25.7,0.012,48.709-15.925,57.732-39.989L185.379,203.034z"
		/>
	<path style="fill:#4482C3;" d="M441.379,88.276v247.172H300.138v-52.966c19.772-0.011,38.346-9.478,49.973-25.469
		c11.627-15.992,14.905-36.58,8.818-55.391L441.379,88.276z"/>
	<path style="fill:#E64C3C;" d="M300.138,282.483v52.966H185.379V203.034l56.938,39.459h0.088
		C251.429,266.557,274.438,282.495,300.138,282.483z"/>
	<g>
		<circle style="fill:#BDC3C7;" cx="70.621" cy="220.69" r="26.483"/>
		<circle style="fill:#BDC3C7;" cx="300.138" cy="220.69" r="26.483"/>
		<circle style="fill:#BDC3C7;" cx="441.379" cy="26.483" r="26.483"/>
		<circle style="fill:#BDC3C7;" cx="185.379" cy="141.241" r="26.483"/>
	</g>
</g>
<g>
</g>
<g>
</g>
<g>
</g>
<g>
</g>
<g>
</g>
<g>
</g>
<g>
</g>
<g>
</g>
<g>
</g>
<g>
</g>
<g>
</g>
<g>
</g>
<g>
</g>
<g>
</g>
<g>
</g>
</svg>
