<svg id="Capa_1" enable-background="new 0 0 512 512" height="512" viewBox="0 0 512 512" width="512" xmlns="http://www.w3.org/2000/svg"><g><g><path d="m281.6 503.467c0 4.713-3.82 8.533-8.533 8.533h-34.133c-4.713 0-8.533-3.821-8.533-8.533v-115.886h51.2v115.886z" fill="#d2a677"/><path d="m257.906 387.581v115.885c0 4.713-3.82 8.533-8.533 8.533h23.694c4.713 0 8.533-3.82 8.533-8.533v-115.885z" fill="#b38a68"/><path d="m404.982 477.867h-297.964l9.768-34.134h278.428z" fill="#b38a68"/><path d="m136.533 392.732v-5.151h-51.2v5.151l-31.019 108.387c-1.56 5.452 2.533 10.881 8.204 10.881h33.448c3.809 0 7.156-2.524 8.204-6.185z" fill="#d2a677"/><path d="m112.839 387.581v5.151l-32.363 113.083c-1.048 3.661-4.395 6.185-8.204 6.185h23.694c3.809 0 7.156-2.524 8.204-6.185l32.363-113.082v-5.151h-23.694z" fill="#b38a68"/><path d="m375.467 392.732v-4.121h51.2v4.121l31.019 108.387c1.56 5.452-2.533 10.881-8.204 10.881h-33.448c-3.809 0-7.156-2.524-8.204-6.185z" fill="#d2a677"/><path d="m457.686 501.119-31.02-108.387v-4.121h-23.694v4.121l31.02 108.387c1.56 5.452-2.533 10.881-8.204 10.881h23.694c5.671 0 9.764-5.429 8.204-10.881z" fill="#b38a68"/><g><path d="m469.333 379.141h-426.666c-4.713 0-8.533-3.82-8.533-8.533v-341.626h443.733v341.625c0 4.713-3.821 8.534-8.534 8.534z" fill="#edf6ff"/><path d="m454.172 28.982v341.625c0 4.713-3.82 8.533-8.533 8.533h23.694c4.713 0 8.533-3.82 8.533-8.533v-341.625z" fill="#d8e2f3"/></g><path d="m486.933 34.133h-461.866c-4.418 0-8-3.582-8-8v-18.133c0-4.418 3.582-8 8-8h461.867c4.418 0 8 3.582 8 8v18.133c-.001 4.419-3.582 8-8.001 8z" fill="#817d84"/><path d="m486.692 0h-23.694c4.551 0 8.241 3.69 8.241 8.241v17.65c0 4.552-3.69 8.241-8.241 8.241h23.694c4.551 0 8.241-3.69 8.241-8.241v-17.65c0-4.551-3.69-8.241-8.241-8.241z" fill="#756e79"/><path d="m486.933 392.533h-461.866c-4.418 0-8-3.582-8-8v-18.133c0-4.418 3.582-8 8-8h461.867c4.418 0 8 3.582 8 8v18.133c-.001 4.419-3.582 8-8.001 8z" fill="#817d84"/><path d="m486.692 358.4h-23.694c4.551 0 8.241 3.69 8.241 8.241v17.65c0 4.552-3.69 8.242-8.241 8.242h23.694c4.551 0 8.241-3.69 8.241-8.242v-17.65c0-4.551-3.69-8.241-8.241-8.241z" fill="#756e79"/></g><g><path d="m136.534 331.993c-13.671 0-24.794-11.123-24.794-24.794s11.123-24.793 24.794-24.793 24.793 11.122 24.793 24.793c-.001 13.672-11.122 24.794-24.793 24.794zm0-34.133c-5.151 0-9.341 4.19-9.341 9.34 0 5.151 4.19 9.341 9.341 9.341 5.15 0 9.34-4.19 9.34-9.341 0-5.15-4.191-9.34-9.34-9.34z" fill="#c1e3a0"/></g><g><path d="m375.466 110.73c-13.671 0-24.793-11.122-24.793-24.793s11.122-24.794 24.793-24.794 24.794 11.123 24.794 24.794-11.123 24.793-24.794 24.793zm0-34.134c-5.15 0-9.34 4.19-9.34 9.341 0 5.15 4.19 9.34 9.34 9.34 5.151 0 9.341-4.19 9.341-9.34 0-5.151-4.19-9.341-9.341-9.341z" fill="#c1e3a0"/></g><g><path d="m136.534 263.727c-4.268 0-7.726-3.459-7.726-7.726v-17.067c0-4.268 3.459-7.726 7.726-7.726 4.268 0 7.726 3.459 7.726 7.726v17.066c0 4.268-3.459 7.727-7.726 7.727z" fill="#aecafc"/></g><g><path d="m136.534 212.527c-4.268 0-7.726-3.459-7.726-7.726v-17.067c0-4.268 3.459-7.726 7.726-7.726 4.268 0 7.726 3.459 7.726 7.726v17.066c0 4.268-3.459 7.727-7.726 7.727z" fill="#aecafc"/></g><g><g><path d="m153.6 161.326c-1.977 0-3.955-.755-5.464-2.263l-34.134-34.134c-3.017-3.018-3.017-7.91 0-10.928 3.018-3.016 7.909-3.016 10.928 0l34.134 34.134c3.017 3.018 3.017 7.909 0 10.928-1.509 1.509-3.487 2.263-5.464 2.263z" fill="#e27f84"/></g><g><path d="m119.466 161.326c-1.977 0-3.955-.755-5.464-2.263-3.017-3.018-3.017-7.909 0-10.928l34.134-34.134c3.018-3.016 7.909-3.016 10.928 0 3.017 3.018 3.017 7.909 0 10.928l-34.134 34.134c-1.509 1.509-3.487 2.263-5.464 2.263z" fill="#e27f84"/></g></g><g><g><path d="m256 272.26c-1.977 0-3.955-.754-5.464-2.262l-34.134-34.134c-3.017-3.018-3.017-7.91 0-10.928 3.018-3.016 7.909-3.016 10.928 0l34.134 34.134c3.017 3.018 3.017 7.909 0 10.928-1.509 1.507-3.487 2.262-5.464 2.262z" fill="#e27f84"/></g><g><path d="m221.867 272.26c-1.977 0-3.955-.754-5.464-2.262-3.017-3.018-3.017-7.91 0-10.928l34.134-34.134c3.018-3.016 7.909-3.016 10.928 0 3.017 3.018 3.017 7.909 0 10.928l-34.134 34.134c-1.51 1.507-3.488 2.262-5.464 2.262z" fill="#e27f84"/></g></g><g><g><path d="m392.534 272.26c-1.977 0-3.955-.754-5.464-2.262l-34.134-34.134c-3.017-3.018-3.017-7.91 0-10.928 3.018-3.016 7.909-3.016 10.927 0l34.134 34.134c3.017 3.018 3.017 7.909 0 10.928-1.509 1.507-3.487 2.262-5.463 2.262z" fill="#e27f84"/></g><g><path d="m358.4 272.26c-1.977 0-3.955-.754-5.464-2.262-3.017-3.018-3.017-7.91 0-10.928l34.134-34.134c3.018-3.016 7.909-3.016 10.928 0 3.017 3.018 3.017 7.909 0 10.928l-34.134 34.134c-1.51 1.507-3.487 2.262-5.464 2.262z" fill="#e27f84"/></g></g><g><g><path d="m375.466 195.459h-204.8c-4.268 0-7.726-3.459-7.726-7.726 0-4.268 3.459-7.726 7.726-7.726h197.074v-43.881c0-4.268 3.459-7.726 7.726-7.726 4.268 0 7.726 3.459 7.726 7.726v51.608c.001 4.266-3.458 7.725-7.726 7.725z" fill="#817d84"/></g><g><path d="m392.534 160.918c-1.977 0-3.955-.755-5.463-2.263l-11.605-11.604-11.603 11.604c-3.018 3.016-7.909 3.016-10.927 0-3.017-3.018-3.017-7.91 0-10.928l17.066-17.066c3.018-3.016 7.91-3.016 10.927 0l17.067 17.066c3.018 3.017 3.018 7.91.001 10.927-1.509 1.509-3.487 2.264-5.463 2.264z" fill="#828282"/></g></g></g></svg>