<?xml version="1.0" encoding="iso-8859-1"?>
<!-- Generator: Adobe Illustrator 19.0.0, SVG Export Plug-In . SVG Version: 6.00 Build 0)  -->
<svg version="1.1" id="Capa_1" xmlns="http://www.w3.org/2000/svg" xmlns:xlink="http://www.w3.org/1999/xlink" x="0px" y="0px"
	 viewBox="0 0 384 384" style="enable-background:new 0 0 384 384;" xml:space="preserve">
<circle style="fill:#EA8953;" cx="192" cy="192" r="192"/>
<path style="opacity:0.1;enable-background:new    ;" d="M299.16,81.99h-209c-3.04,0-5.48,2.48-5.48,5.52v45.72
	c0,1.4,0.52,2.68,1.4,3.64l0.4,0.4l10.64,10.64h-6.96c-3.04,0-5.48,2.44-5.48,5.48v45.72c0,1.4,0.52,2.72,1.4,3.68l11.04,11.04
	h-6.96c-3.04,0-5.48,2.44-5.48,5.48v45.72c0,1.399,0.52,2.68,1.4,3.64v0.04l21.28,21.28H79.32v10l81.441,81.441
	C170.932,383.096,181.358,384,192,384c106.039,0,192-85.961,192-192c0-10.122-0.795-20.056-2.304-29.755L303.12,83.67
	C302.12,82.63,300.72,81.99,299.16,81.99z"/>
<g>
	<rect x="187" y="133.16" style="fill:#64798A;" width="10" height="159.488"/>
	<rect x="79.328" y="290" style="fill:#64798A;" width="225.36" height="10"/>
</g>
<g>
	<polygon style="fill:#3A556A;" points="198.704,288.592 198.704,277.96 185.295,277.96 185.295,288.592 163.27,288.592 163.27,302 
		220.729,302 220.729,288.592 	"/>
	<path style="fill:#3A556A;" d="M299.178,82H90.165c-3.033,0-5.492,2.459-5.492,5.493v45.721c0,3.033,2.459,5.492,5.492,5.492
		h209.014c3.035,0,5.494-2.459,5.494-5.492V87.493C304.673,84.459,302.214,82,299.178,82z"/>
</g>
<path style="fill:#EBF0F3;" d="M90.163,134.706c-0.824,0-1.492-0.67-1.492-1.492V87.493c0-0.822,0.668-1.492,1.492-1.492h209.016
	c0.824,0,1.492,0.67,1.492,1.492v45.721c0,0.822-0.668,1.492-1.492,1.492H90.163z"/>
<g>
	<circle style="fill:#64798A;" cx="205.24" cy="93.4" r="3.196"/>
	<circle style="fill:#64798A;" cx="217.52" cy="93.4" r="3.196"/>
	<circle style="fill:#64798A;" cx="229.84" cy="93.4" r="3.196"/>
	<circle style="fill:#64798A;" cx="242.12" cy="93.4" r="3.196"/>
	<circle style="fill:#64798A;" cx="254.4" cy="93.4" r="3.196"/>
	<circle style="fill:#64798A;" cx="266.68" cy="93.4" r="3.196"/>
	<circle style="fill:#64798A;" cx="279" cy="93.4" r="3.196"/>
	<circle style="fill:#64798A;" cx="291.28" cy="93.4" r="3.196"/>
	<circle style="fill:#64798A;" cx="211.388" cy="101.884" r="3.196"/>
	<circle style="fill:#64798A;" cx="223.676" cy="101.884" r="3.196"/>
	<circle style="fill:#64798A;" cx="235.968" cy="101.884" r="3.196"/>
	<circle style="fill:#64798A;" cx="248.28" cy="101.884" r="3.196"/>
	<circle style="fill:#64798A;" cx="260.56" cy="101.884" r="3.196"/>
	<circle style="fill:#64798A;" cx="272.84" cy="101.884" r="3.196"/>
	<circle style="fill:#64798A;" cx="285.12" cy="101.884" r="3.196"/>
	<circle style="fill:#64798A;" cx="205.24" cy="110.352" r="3.196"/>
	<circle style="fill:#64798A;" cx="217.52" cy="110.352" r="3.196"/>
	<circle style="fill:#64798A;" cx="229.84" cy="110.352" r="3.196"/>
	<circle style="fill:#64798A;" cx="242.12" cy="110.352" r="3.196"/>
	<circle style="fill:#64798A;" cx="254.4" cy="110.352" r="3.196"/>
	<circle style="fill:#64798A;" cx="266.68" cy="110.352" r="3.196"/>
	<circle style="fill:#64798A;" cx="279" cy="110.352" r="3.196"/>
	<circle style="fill:#64798A;" cx="291.28" cy="110.352" r="3.196"/>
	<circle style="fill:#64798A;" cx="211.388" cy="118.82" r="3.196"/>
	<circle style="fill:#64798A;" cx="223.676" cy="118.82" r="3.196"/>
	<circle style="fill:#64798A;" cx="235.968" cy="118.82" r="3.196"/>
	<circle style="fill:#64798A;" cx="248.28" cy="118.82" r="3.196"/>
	<circle style="fill:#64798A;" cx="260.56" cy="118.82" r="3.196"/>
	<circle style="fill:#64798A;" cx="272.84" cy="118.82" r="3.196"/>
	<circle style="fill:#64798A;" cx="285.12" cy="118.82" r="3.196"/>
	<circle style="fill:#64798A;" cx="205.24" cy="127.288" r="3.196"/>
	<circle style="fill:#64798A;" cx="217.52" cy="127.288" r="3.196"/>
	<circle style="fill:#64798A;" cx="229.84" cy="127.288" r="3.196"/>
	<circle style="fill:#64798A;" cx="242.12" cy="127.288" r="3.196"/>
	<circle style="fill:#64798A;" cx="254.4" cy="127.288" r="3.196"/>
	<circle style="fill:#64798A;" cx="266.68" cy="127.288" r="3.196"/>
	<circle style="fill:#64798A;" cx="279" cy="127.288" r="3.196"/>
	<circle style="fill:#64798A;" cx="291.28" cy="127.288" r="3.196"/>
</g>
<circle style="fill:#3A556A;" cx="108" cy="110.352" r="13"/>
<circle style="fill:#64798A;" cx="108.24" cy="110.128" r="8.964"/>
<circle style="fill:#E56353;" cx="139.396" cy="110.352" r="6.556"/>
<circle style="fill:#44C4A1;" cx="165.68" cy="110.352" r="6.556"/>
<path style="fill:#3A556A;" d="M299.178,147.906H90.165c-3.033,0-5.492,2.459-5.492,5.493v45.72c0,3.033,2.459,5.492,5.492,5.492
	h209.014c3.035,0,5.494-2.459,5.494-5.492v-45.72C304.673,150.365,302.214,147.906,299.178,147.906z"/>
<path style="fill:#EBF0F3;" d="M90.163,200.612c-0.824,0-1.492-0.67-1.492-1.492v-45.72c0-0.822,0.668-1.492,1.492-1.492h209.016
	c0.824,0,1.492,0.67,1.492,1.492v45.72c0,0.822-0.668,1.492-1.492,1.492H90.163z"/>
<g>
	<circle style="fill:#64798A;" cx="205.24" cy="159.324" r="3.196"/>
	<circle style="fill:#64798A;" cx="217.52" cy="159.324" r="3.196"/>
	<circle style="fill:#64798A;" cx="229.84" cy="159.324" r="3.196"/>
	<circle style="fill:#64798A;" cx="242.12" cy="159.324" r="3.196"/>
	<circle style="fill:#64798A;" cx="254.4" cy="159.324" r="3.196"/>
	<circle style="fill:#64798A;" cx="266.68" cy="159.324" r="3.196"/>
	<circle style="fill:#64798A;" cx="279" cy="159.324" r="3.196"/>
	<circle style="fill:#64798A;" cx="291.28" cy="159.324" r="3.196"/>
	<circle style="fill:#64798A;" cx="211.388" cy="167.792" r="3.196"/>
	<circle style="fill:#64798A;" cx="223.676" cy="167.792" r="3.196"/>
	<circle style="fill:#64798A;" cx="235.968" cy="167.792" r="3.196"/>
	<circle style="fill:#64798A;" cx="248.28" cy="167.792" r="3.196"/>
	<circle style="fill:#64798A;" cx="260.56" cy="167.792" r="3.196"/>
	<circle style="fill:#64798A;" cx="272.84" cy="167.792" r="3.196"/>
	<circle style="fill:#64798A;" cx="285.12" cy="167.792" r="3.196"/>
	<circle style="fill:#64798A;" cx="205.24" cy="176.24" r="3.196"/>
	<circle style="fill:#64798A;" cx="217.52" cy="176.24" r="3.196"/>
	<circle style="fill:#64798A;" cx="229.84" cy="176.24" r="3.196"/>
	<circle style="fill:#64798A;" cx="242.12" cy="176.24" r="3.196"/>
	<circle style="fill:#64798A;" cx="254.4" cy="176.24" r="3.196"/>
	<circle style="fill:#64798A;" cx="266.68" cy="176.24" r="3.196"/>
	<circle style="fill:#64798A;" cx="279" cy="176.24" r="3.196"/>
	<circle style="fill:#64798A;" cx="291.28" cy="176.24" r="3.196"/>
	<circle style="fill:#64798A;" cx="211.388" cy="184.72" r="3.196"/>
	<circle style="fill:#64798A;" cx="223.676" cy="184.72" r="3.196"/>
	<circle style="fill:#64798A;" cx="235.968" cy="184.72" r="3.196"/>
	<circle style="fill:#64798A;" cx="248.28" cy="184.72" r="3.196"/>
	<circle style="fill:#64798A;" cx="260.56" cy="184.72" r="3.196"/>
	<circle style="fill:#64798A;" cx="272.84" cy="184.72" r="3.196"/>
	<circle style="fill:#64798A;" cx="285.12" cy="184.72" r="3.196"/>
	<circle style="fill:#64798A;" cx="205.24" cy="193.2" r="3.196"/>
	<circle style="fill:#64798A;" cx="217.52" cy="193.2" r="3.196"/>
	<circle style="fill:#64798A;" cx="229.84" cy="193.2" r="3.196"/>
	<circle style="fill:#64798A;" cx="242.12" cy="193.2" r="3.196"/>
	<circle style="fill:#64798A;" cx="254.4" cy="193.2" r="3.196"/>
	<circle style="fill:#64798A;" cx="266.68" cy="193.2" r="3.196"/>
	<circle style="fill:#64798A;" cx="279" cy="193.2" r="3.196"/>
	<circle style="fill:#64798A;" cx="291.28" cy="193.2" r="3.196"/>
</g>
<circle style="fill:#3A556A;" cx="108" cy="176.24" r="13"/>
<circle style="fill:#64798A;" cx="108.24" cy="176.04" r="8.964"/>
<circle style="fill:#E56353;" cx="139.396" cy="176.24" r="6.556"/>
<circle style="fill:#44C4A1;" cx="165.68" cy="176.24" r="6.556"/>
<path style="fill:#3A556A;" d="M299.178,213.812H90.165c-3.033,0-5.492,2.459-5.492,5.492v45.721c0,3.033,2.459,5.492,5.492,5.492
	h209.014c3.035,0,5.494-2.459,5.494-5.492v-45.721C304.673,216.271,302.214,213.812,299.178,213.812z"/>
<path style="fill:#EBF0F3;" d="M90.163,266.517c-0.824,0-1.492-0.67-1.492-1.492v-45.721c0-0.822,0.668-1.492,1.492-1.492h209.016
	c0.824,0,1.492,0.67,1.492,1.492v45.721c0,0.822-0.668,1.492-1.492,1.492H90.163z"/>
<g>
	<circle style="fill:#64798A;" cx="205.24" cy="225.24" r="3.196"/>
	<circle style="fill:#64798A;" cx="217.52" cy="225.24" r="3.196"/>
	<circle style="fill:#64798A;" cx="229.84" cy="225.24" r="3.196"/>
	<circle style="fill:#64798A;" cx="242.12" cy="225.24" r="3.196"/>
	<circle style="fill:#64798A;" cx="254.4" cy="225.24" r="3.196"/>
	<circle style="fill:#64798A;" cx="266.68" cy="225.24" r="3.196"/>
	<circle style="fill:#64798A;" cx="279" cy="225.24" r="3.196"/>
	<circle style="fill:#64798A;" cx="291.28" cy="225.24" r="3.196"/>
	<circle style="fill:#64798A;" cx="211.388" cy="233.68" r="3.196"/>
	<circle style="fill:#64798A;" cx="223.676" cy="233.68" r="3.196"/>
	<circle style="fill:#64798A;" cx="235.968" cy="233.68" r="3.196"/>
	<circle style="fill:#64798A;" cx="248.28" cy="233.68" r="3.196"/>
	<circle style="fill:#64798A;" cx="260.56" cy="233.68" r="3.196"/>
	<circle style="fill:#64798A;" cx="272.84" cy="233.68" r="3.196"/>
	<circle style="fill:#64798A;" cx="285.12" cy="233.68" r="3.196"/>
	<circle style="fill:#64798A;" cx="205.24" cy="242.16" r="3.196"/>
	<circle style="fill:#64798A;" cx="217.52" cy="242.16" r="3.196"/>
	<circle style="fill:#64798A;" cx="229.84" cy="242.16" r="3.196"/>
	<circle style="fill:#64798A;" cx="242.12" cy="242.16" r="3.196"/>
	<circle style="fill:#64798A;" cx="254.4" cy="242.16" r="3.196"/>
	<circle style="fill:#64798A;" cx="266.68" cy="242.16" r="3.196"/>
	<circle style="fill:#64798A;" cx="279" cy="242.16" r="3.196"/>
	<circle style="fill:#64798A;" cx="291.28" cy="242.16" r="3.196"/>
	<circle style="fill:#64798A;" cx="211.388" cy="250.64" r="3.196"/>
	<circle style="fill:#64798A;" cx="223.676" cy="250.64" r="3.196"/>
	<circle style="fill:#64798A;" cx="235.968" cy="250.64" r="3.196"/>
	<circle style="fill:#64798A;" cx="248.28" cy="250.64" r="3.196"/>
	<circle style="fill:#64798A;" cx="260.56" cy="250.64" r="3.196"/>
	<circle style="fill:#64798A;" cx="272.84" cy="250.64" r="3.196"/>
	<circle style="fill:#64798A;" cx="285.12" cy="250.64" r="3.196"/>
	<circle style="fill:#64798A;" cx="205.24" cy="259.12" r="3.196"/>
	<circle style="fill:#64798A;" cx="217.52" cy="259.12" r="3.196"/>
	<circle style="fill:#64798A;" cx="229.84" cy="259.12" r="3.196"/>
	<circle style="fill:#64798A;" cx="242.12" cy="259.12" r="3.196"/>
	<circle style="fill:#64798A;" cx="254.4" cy="259.12" r="3.196"/>
	<circle style="fill:#64798A;" cx="266.68" cy="259.12" r="3.196"/>
	<circle style="fill:#64798A;" cx="279" cy="259.12" r="3.196"/>
	<circle style="fill:#64798A;" cx="291.28" cy="259.12" r="3.196"/>
</g>
<circle style="fill:#3A556A;" cx="108" cy="242.16" r="13"/>
<circle style="fill:#64798A;" cx="108.24" cy="241.92" r="8.964"/>
<circle style="fill:#E56353;" cx="139.396" cy="242.16" r="6.556"/>
<circle style="fill:#44C4A1;" cx="165.68" cy="242.16" r="6.556"/>
<g>
</g>
<g>
</g>
<g>
</g>
<g>
</g>
<g>
</g>
<g>
</g>
<g>
</g>
<g>
</g>
<g>
</g>
<g>
</g>
<g>
</g>
<g>
</g>
<g>
</g>
<g>
</g>
<g>
</g>
</svg>
