<svg id="flat-export" height="512" viewBox="0 0 512 512" width="512" xmlns="http://www.w3.org/2000/svg"><path d="m421.657 418.343-69.657-69.656v-65.373l54.649 54.65 11.315-11.315-65.964-65.963v-20.686h-16v109.578l-43.742 65.613 13.312 8.875 39.673-59.509 65.1 65.1z" fill="#d1e4ff"/><path d="m240 496 .00011-86.42161a47.981 47.981 0 0 0 23.99989-41.57839v-72a40 40 0 0 0 -40-40h-160a40 40 0 0 0 -40 40v59.39116a52.45356 52.45356 0 0 0 15.99983 37.78194l.00017 102.8269z" fill="#ffa100"/><path d="m79.99805 360a8.01172 8.01172 0 0 1 -3.99591-1.0698 8.246 8.246 0 0 1 -4.00214-7.1922v-31.738a8 8 0 0 1 8-8 8 8 0 0 1 8 8v12.68653l20.68592-20.68669a8 8 0 0 1 11.31381-.0001l.00065.00065a8 8 0 0 1 0 11.3137l-34.34315 34.34314a8.00136 8.00136 0 0 1 -5.65918 2.34277z" fill="#f78e00"/><path d="m168 272-8 16v40l-40-16v-32l4.33-8.65 7.67-15.35h20z" fill="#ffceb6"/><path d="m216 424h-72a8 8 0 0 1 -8-8 8 8 0 0 1 8-8h72a40.10407 40.10407 0 0 0 13.956-2.505 7.99033 7.99033 0 0 1 9.70065 3.48968l.00111.00191a8.0262 8.0262 0 0 1 -4.23118 11.54341 56.12157 56.12157 0 0 1 -19.42658 3.47z" fill="#f78e00"/><path d="m160.00011 376.00064-.00011-.00094a8 8 0 0 1 6.576-9.20649l33.424-5.57055v-33.22266a8 8 0 0 1 8-8 8 8 0 0 1 8 8v40a8.0005 8.0005 0 0 1 -6.68457 7.8916l-40.109 6.68484a8 8 0 0 1 -9.20632-6.5758z" fill="#f78e00"/><path d="m136 360 24 16-24 40-32-16a53.66555 53.66555 0 0 0 24-24z" fill="#ffceb6"/><path d="m232 208h-32l32-40v-128a16 16 0 0 1 16-16h224a16 16 0 0 1 16 16v184a16 16 0 0 1 -16 16h-224a16 16 0 0 1 -16-16z" fill="#4f5dff"/><path d="m472 320a40 40 0 1 1 -40-40 39.93407 39.93407 0 0 1 40 40z" fill="#f78e00"/><circle cx="432" cy="320" fill="#ffceb6" r="16"/><path d="m456 352a40 40 0 0 1 -48 0 15.99548 15.99548 0 0 1 16-16h16a15.99548 15.99548 0 0 1 16 16z" fill="#ffc431"/><path d="m75.72809 415.99373a60.23714 60.23714 0 0 1 -34.3045-11.24012 7.97142 7.97142 0 0 1 -1.00438-12.01335l.00566-.00584a8.04033 8.04033 0 0 1 10.44968-.89635 44.34477 44.34477 0 0 0 25.558 8.16159 45.54059 45.54059 0 0 0 37.2199-19.73859l35.20607-50.29487a8 8 0 0 1 11.14175-1.966 8 8 0 0 1 1.966 11.14137l-35.18733 50.2681a61.576 61.576 0 0 1 -51.05085 26.58406z" fill="#f78e00"/><path d="m152 256h-20l-7.66992 15.3501a43.93141 43.93141 0 0 0 41.73-1.29z" fill="#ffbfa1"/><path d="m144 264a32 32 0 0 1 -32-32v-16l24-24h40v40a32 32 0 0 1 -32 32z" fill="#ffceb6"/><path d="m176 192 7.80063-3.90031a14.8328 14.8328 0 0 0 8.19937-13.26687 14.8328 14.8328 0 0 0 -14.8328-14.83282h-33.1672a32 32 0 0 0 -32 32v24l24-24z" fill="#c47220"/><path d="m440 192h-80v-16h72v-40h-144a7.99977 7.99977 0 0 1 -8-8v-40a24.02687 24.02687 0 0 1 24-24h48v16h-48a8.00917 8.00917 0 0 0 -8 8v32h144a7.99977 7.99977 0 0 1 8 8v56a7.99977 7.99977 0 0 1 -8 8z" fill="#3942ed"/><path d="m328 128 32-16 32 16-32 16z" fill="#f5714f"/><path d="m272 112h40l-16 32h-40z" fill="#ffc431"/><path d="m424 112h40l-16 32h-40z" fill="#ffc431"/><rect fill="#788dff" height="32" rx="16" width="48" x="336" y="56"/><rect fill="#02c26a" height="32" rx="16" width="48" x="336" y="168"/><path d="m456 176h-9.42517a27.85139 27.85139 0 0 1 -12.45553-2.94035 15.69692 15.69692 0 0 0 -18.1193 2.94035v24h40z" fill="#788dff"/><path d="m472 440a40 40 0 1 1 -40-40 39.93407 39.93407 0 0 1 40 40z" fill="#f78e00"/><circle cx="432" cy="440" fill="#ffceb6" r="16"/><path d="m456 472a40 40 0 0 1 -48 0 15.99548 15.99548 0 0 1 16-16h16a15.99548 15.99548 0 0 1 16 16z" fill="#ffc431"/><path d="m352 440a40 40 0 1 1 -40-40 39.93407 39.93407 0 0 1 40 40z" fill="#f78e00"/><circle cx="312" cy="440" fill="#ffceb6" r="16"/><path d="m336 472a40 40 0 0 1 -48 0 15.99548 15.99548 0 0 1 16-16h16a15.99548 15.99548 0 0 1 16 16z" fill="#ffc431"/></svg>