<svg width="100" height="100" viewBox="0 0 100 100" fill="none" xmlns="http://www.w3.org/2000/svg">
<path d="M58.5938 100H0V23.8281H58.5938V100Z" fill="#FFE477"/>
<path d="M58.5938 23.8281H29.2969V100H58.5938V23.8281Z" fill="#FFA733"/>
<path d="M46.875 88.2812H11.7188V70.7031H46.875V88.2812Z" fill="#B87FD9"/>
<path d="M79.8828 82.4219H45.8984V76.5625H74.0234V67.5781H79.8828V82.4219Z" fill="#ACABB1"/>
<path d="M25.5859 35.5469H11.7188V41.4062H25.5859V35.5469Z" fill="#FF9A00"/>
<path d="M25.5859 47.2656H11.7188V53.125H25.5859V47.2656Z" fill="#FF9A00"/>
<path d="M100 58.9844H23.8281V0H100V58.9844Z" fill="#E3CEF0"/>
<path d="M100 0H61.9141V58.9844H100V0Z" fill="#D5B4E8"/>
<path d="M100 23.4375H23.8281V0H100V23.4375Z" fill="#B87FD9"/>
<path d="M36.5234 15.625C38.1415 15.625 39.4531 14.3133 39.4531 12.6953C39.4531 11.0773 38.1415 9.76562 36.5234 9.76562C34.9054 9.76562 33.5938 11.0773 33.5938 12.6953C33.5938 14.3133 34.9054 15.625 36.5234 15.625Z" fill="#FFE477"/>
<path d="M47.0565 45.6189L39.4606 38.023L43.6037 33.8799L47.0565 37.3324L53.2713 31.1176L57.4145 35.2607L47.0565 45.6189Z" fill="#FFE477"/>
<path d="M83.5725 35.0238L79.4293 30.8807L75.9766 34.3334L72.5238 30.8807L68.3807 35.0238L71.8334 38.4766L68.3807 41.9293L72.5238 46.0725L75.9766 42.6197L79.4293 46.0725L83.5725 41.9293L80.1197 38.4766L83.5725 35.0238Z" fill="#E67500"/>
<path d="M100 0H61.9141V23.4375H100V0Z" fill="#8034AD"/>
<path d="M46.875 88.2812H29.2969V70.7031H46.875V88.2812Z" fill="#8034AD"/>
<path d="M70.1172 71.4844L76.9531 64.6484L83.7891 71.4844H70.1172Z" fill="#57555C"/>
</svg>
