<svg width="100" height="100" viewBox="0 0 100 100" fill="none" xmlns="http://www.w3.org/2000/svg">
<path d="M50 100C77.6142 100 100 77.6142 100 50C100 22.3858 77.6142 0 50 0C22.3858 0 0 22.3858 0 50C0 77.6142 22.3858 100 50 100Z" fill="url(#paint0_linear)"/>
<path d="M43.0836 42.6061C42.0301 43.5563 41.3545 44.917 41.3545 46.4441C41.3545 47.9713 42.0301 49.332 43.0836 50.2822C44.1372 49.332 44.8127 47.9713 44.8127 46.4441C44.8127 44.917 44.1372 43.5563 43.0836 42.6061V42.6061ZM39.6254 41.2568C36.7651 41.2568 34.4381 43.5836 34.4381 46.4441C34.4381 49.3045 36.7649 51.6314 39.6254 51.6314C39.6393 51.6314 39.6522 51.6277 39.6663 51.6273C38.5709 50.1787 37.8963 48.3959 37.8963 46.4441C37.8963 44.4924 38.5709 42.7094 39.6663 41.2609C39.6524 41.2607 39.6395 41.2568 39.6254 41.2568V41.2568ZM46.5012 41.2609C47.5965 42.7096 48.2709 44.4924 48.2709 46.4441C48.2709 48.3959 47.5963 50.1789 46.5012 51.6273C46.5151 51.6275 46.528 51.6314 46.542 51.6314C49.4024 51.6314 51.7293 49.3047 51.7293 46.4441C51.7293 43.5838 49.4024 41.2568 46.542 41.2568C46.528 41.2568 46.5151 41.2607 46.5012 41.2609V41.2609ZM51.7292 21.5209V30.8822H61.0905L51.7292 21.5209ZM48.2709 32.6115V20.5078H25.7928C24.8372 20.5078 24.0637 21.2812 24.0637 22.2369V77.5678C24.0637 78.5234 24.8372 79.2969 25.7928 79.2969H60.3747C61.3303 79.2969 62.1038 78.5234 62.1038 77.5678V34.3404H50.0001C49.0444 34.3404 48.2709 33.5672 48.2709 32.6115V32.6115ZM50.0001 68.9223H36.1674C35.2118 68.9223 34.4383 68.1488 34.4383 67.1932C34.4383 66.2375 35.2118 65.4641 36.1674 65.4641H50.0001C50.9557 65.4641 51.7292 66.2375 51.7292 67.1932C51.7292 68.149 50.9557 68.9223 50.0001 68.9223ZM53.4583 62.0061H32.7092C31.7536 62.0061 30.9801 61.2326 30.9801 60.277C30.9801 59.3213 31.7536 58.5479 32.7092 58.5479H53.4583C54.4139 58.5479 55.1874 59.3213 55.1874 60.277C55.1874 61.2326 54.4139 62.0061 53.4583 62.0061ZM55.1874 46.4441C55.1874 51.2109 51.3086 55.0896 46.5418 55.0896C45.311 55.0896 44.1446 54.8225 43.0836 54.3568C42.0227 54.8225 40.8563 55.0896 39.6254 55.0896C34.8586 55.0896 30.9799 51.2109 30.9799 46.4441C30.9799 41.6773 34.8586 37.7986 39.6254 37.7986C40.8563 37.7986 42.0227 38.0658 43.0836 38.5314C44.1446 38.0658 45.311 37.7986 46.5418 37.7986C51.3086 37.7986 55.1874 41.6773 55.1874 46.4441ZM65.562 65.7613C65.562 69.3242 67.0073 72.8127 69.5268 75.332C69.8645 75.6697 70.3069 75.8387 70.7493 75.8387C71.1917 75.8387 71.634 75.6697 71.9717 75.332C74.4911 72.8127 75.9366 69.3242 75.9366 65.7613V55.0896H65.562V65.7613ZM70.7491 30.8824C67.8885 30.8824 65.5618 33.2092 65.5618 36.0697V51.6314H75.9364V36.0697C75.9364 33.2092 73.6096 30.8824 70.7491 30.8824V30.8824Z" fill="url(#paint1_linear)"/>
<defs>
<linearGradient id="paint0_linear" x1="50" y1="100" x2="50" y2="0" gradientUnits="userSpaceOnUse">
<stop stop-color="white"/>
</linearGradient>
<linearGradient id="paint1_linear" x1="50.0001" y1="20.5078" x2="50.0001" y2="79.2969" gradientUnits="userSpaceOnUse">
<stop offset="0.288194" stop-color="#19D895"/>
</linearGradient>
</defs>
</svg>
