<svg width="100" height="100" viewBox="0 0 100 100" fill="none" xmlns="http://www.w3.org/2000/svg">
<g clip-path="url(#clip0)">
<path d="M80.7383 62.1797C80.7383 75.6797 73.6641 87.5293 63.0176 94.2207C60.1055 96.0527 51.5117 96.9668 42.918 96.9668C34.3242 96.9687 25.7305 96.0527 22.8184 94.2227C12.1719 87.5313 5.09766 75.6816 5.09766 62.1797C5.09766 41.291 22.0293 24.3594 42.918 24.3594C63.8047 24.3594 80.7383 41.291 80.7383 62.1797V62.1797Z" fill="#48588B"/>
<path d="M80.7383 62.1797C80.7383 75.6797 73.664 87.5293 63.0176 94.2207C60.1055 96.0527 51.5117 96.9668 42.918 96.9668V24.3594C63.8047 24.3594 80.7383 41.291 80.7383 62.1797Z" fill="#3C4A83"/>
<path d="M53.5394 59.6615C54.9265 53.7934 51.294 47.9119 45.4259 46.5248C39.5578 45.1377 33.6763 48.7702 32.2892 54.6383C30.9021 60.5064 34.5347 66.3879 40.4027 67.775C46.2708 69.1621 52.1523 65.5295 53.5394 59.6615Z" fill="#F9C4B9"/>
<path d="M53.8379 57.125C53.8379 63.1562 48.9492 68.0449 42.918 68.0449V46.2051C48.9492 46.2051 53.8379 51.0957 53.8379 57.125Z" fill="#FFB19E"/>
<path d="M63.0176 83.7988V94.2207C57.1953 97.8828 50.3047 100 42.918 100C35.5312 100 28.6406 97.8828 22.8184 94.2227V83.7988C22.8184 75.0977 29.8711 68.0449 38.5703 68.0449H47.2656C55.9648 68.0449 63.0176 75.0977 63.0176 83.7988V83.7988Z" fill="#60E2F4"/>
<path d="M63.0176 83.7988V94.2207C57.1953 97.8828 50.3047 100 42.918 100V68.0449H47.2656C55.9648 68.0449 63.0176 75.0977 63.0176 83.7988V83.7988Z" fill="#29C5EC"/>
<path d="M89.4359 12.293V18.8926H83.5765V12.293C83.5765 8.74609 80.6898 5.85938 77.1429 5.85938C73.5941 5.85938 70.7094 8.74609 70.7094 12.293V18.8926H64.85V12.293C64.85 5.51562 70.3636 0 77.1429 0C83.9222 0 89.4359 5.51562 89.4359 12.293V12.293Z" fill="#CDDBF9"/>
<path d="M89.436 12.293V18.8926H83.5766V12.293C83.5766 8.74609 80.6899 5.85938 77.143 5.85938V0C83.9223 0 89.436 5.51562 89.436 12.293V12.293Z" fill="#AFC2E8"/>
<path d="M59.3809 15.9629V48.666H74.2129L77.1426 46.5664L80.0723 48.666H94.9023V15.9629H59.3809Z" fill="#FEA000"/>
<path d="M94.9023 15.9629V48.666H80.0723L77.1426 46.5664V15.9629H94.9023Z" fill="#F78002"/>
<path d="M74.2133 29.3848H80.0727V48.666H74.2133V29.3848Z" fill="#FBE200"/>
<path d="M77.143 29.3848H80.0727V48.666H77.143V29.3848Z" fill="#FEBF01"/>
</g>
<defs>
<clipPath id="clip0">
<rect width="100" height="100" fill="white"/>
</clipPath>
</defs>
</svg>
